<?xml version="1.0" encoding="UTF-8" standalone="no"?>
<svg
   xmlns:osb="http://www.openswatchbook.org/uri/2009/osb"
   xmlns:dc="http://purl.org/dc/elements/1.1/"
   xmlns:cc="http://creativecommons.org/ns#"
   xmlns:rdf="http://www.w3.org/1999/02/22-rdf-syntax-ns#"
   xmlns:svg="http://www.w3.org/2000/svg"
   xmlns="http://www.w3.org/2000/svg"
   xmlns:xlink="http://www.w3.org/1999/xlink"
   xmlns:sodipodi="http://sodipodi.sourceforge.net/DTD/sodipodi-0.dtd"
   xmlns:inkscape="http://www.inkscape.org/namespaces/inkscape"
   width="340"
   height="38"
   id="svg2"
   version="1.1"
   inkscape:version="1.0.2 (e86c870879, 2021-01-15)"
   sodipodi:docname="logo.svg">
  <title
     id="title3118">MIPT CS on Python</title>
  <defs
     id="defs4">
    <marker
       style="overflow:visible;"
       id="Arrow1Mend"
       refX="0.0"
       refY="0.0"
       orient="auto"
       inkscape:stockid="Arrow1Mend"
       inkscape:isstock="true">
      <path
         transform="scale(0.4) rotate(180) translate(10,0)"
         style="fill-rule:evenodd;stroke:#080808;stroke-width:1pt;stroke-opacity:0.34178;fill:#34364a;fill-opacity:1"
         d="M 0.0,0.0 L 5.0,-5.0 L -12.5,0.0 L 5.0,5.0 L 0.0,0.0 z "
         id="path983" />
    </marker>
    <linearGradient
       id="linearGradient3794"
       osb:paint="solid">
      <stop
         style="stop-color:#000000;stop-opacity:1;"
         offset="0"
         id="stop3792" />
    </linearGradient>
    <marker
       style="overflow:visible"
       id="marker1444"
       refX="0.0"
       refY="0.0"
       orient="auto"
       inkscape:stockid="Tail"
       inkscape:isstock="true">
      <g
         transform="scale(-1.2)"
         id="g1442"
         style="stroke:#000000;stroke-opacity:1;fill:#34364a;fill-opacity:1">
        <path
           style="fill:#34364a;fill-rule:evenodd;stroke:#000000;stroke-width:0.8;stroke-linecap:round;stroke-opacity:1;fill-opacity:1"
           d="M -3.8048674,-3.9585227 L 0.54352094,0"
           id="path1430" />
        <path
           style="fill:#34364a;fill-rule:evenodd;stroke:#000000;stroke-width:0.8;stroke-linecap:round;stroke-opacity:1;fill-opacity:1"
           d="M -1.2866832,-3.9585227 L 3.0617053,0"
           id="path1432" />
        <path
           style="fill:#34364a;fill-rule:evenodd;stroke:#000000;stroke-width:0.8;stroke-linecap:round;stroke-opacity:1;fill-opacity:1"
           d="M 1.3053582,-3.9585227 L 5.6537466,0"
           id="path1434" />
        <path
           style="fill:#34364a;fill-rule:evenodd;stroke:#000000;stroke-width:0.8;stroke-linecap:round;stroke-opacity:1;fill-opacity:1"
           d="M -3.8048674,4.1775838 L 0.54352094,0.21974226"
           id="path1436" />
        <path
           style="fill:#34364a;fill-rule:evenodd;stroke:#000000;stroke-width:0.8;stroke-linecap:round;stroke-opacity:1;fill-opacity:1"
           d="M -1.2866832,4.1775838 L 3.0617053,0.21974226"
           id="path1438" />
        <path
           style="fill:#34364a;fill-rule:evenodd;stroke:#000000;stroke-width:0.8;stroke-linecap:round;stroke-opacity:1;fill-opacity:1"
           d="M 1.3053582,4.1775838 L 5.6537466,0.21974226"
           id="path1440" />
      </g>
    </marker>
    <marker
       style="overflow:visible"
       id="Tail"
       refX="0.0"
       refY="0.0"
       orient="auto"
       inkscape:stockid="Tail"
       inkscape:isstock="true">
      <g
         transform="scale(-1.2)"
         id="g1022"
         style="stroke:url(#meshgradient960);stroke-opacity:1;fill:#34364a;fill-opacity:1">
        <path
           style="fill:#34364a;fill-rule:evenodd;stroke:url(#meshgradient960);stroke-width:0.8;stroke-linecap:round;stroke-opacity:1;fill-opacity:1"
           d="M -3.8048674,-3.9585227 L 0.54352094,0"
           id="path1010" />
        <path
           style="fill:#34364a;fill-rule:evenodd;stroke:url(#meshgradient960);stroke-width:0.8;stroke-linecap:round;stroke-opacity:1;fill-opacity:1"
           d="M -1.2866832,-3.9585227 L 3.0617053,0"
           id="path1012" />
        <path
           style="fill:#34364a;fill-rule:evenodd;stroke:url(#meshgradient960);stroke-width:0.8;stroke-linecap:round;stroke-opacity:1;fill-opacity:1"
           d="M 1.3053582,-3.9585227 L 5.6537466,0"
           id="path1014" />
        <path
           style="fill:#34364a;fill-rule:evenodd;stroke:url(#meshgradient960);stroke-width:0.8;stroke-linecap:round;stroke-opacity:1;fill-opacity:1"
           d="M -3.8048674,4.1775838 L 0.54352094,0.21974226"
           id="path1016" />
        <path
           style="fill:#34364a;fill-rule:evenodd;stroke:url(#meshgradient960);stroke-width:0.8;stroke-linecap:round;stroke-opacity:1;fill-opacity:1"
           d="M -1.2866832,4.1775838 L 3.0617053,0.21974226"
           id="path1018" />
        <path
           style="fill:#34364a;fill-rule:evenodd;stroke:url(#meshgradient960);stroke-width:0.8;stroke-linecap:round;stroke-opacity:1;fill-opacity:1"
           d="M 1.3053582,4.1775838 L 5.6537466,0.21974226"
           id="path1020" />
      </g>
    </marker>
    <marker
       style="overflow:visible"
       id="Arrow1Sstart"
       refX="0.0"
       refY="0.0"
       orient="auto"
       inkscape:stockid="Arrow1Sstart"
       inkscape:isstock="true">
      <path
         transform="scale(0.2) translate(6,0)"
         style="fill-rule:evenodd;stroke:#080808;stroke-width:1pt;stroke-opacity:0.34178;fill:#34364a;fill-opacity:1"
         d="M 0.0,0.0 L 5.0,-5.0 L -12.5,0.0 L 5.0,5.0 L 0.0,0.0 z "
         id="path986" />
    </marker>
    <marker
       style="overflow:visible"
       id="Arrow1Lstart"
       refX="0.0"
       refY="0.0"
       orient="auto"
       inkscape:stockid="Arrow1Lstart"
       inkscape:isstock="true">
      <path
         transform="scale(0.8) translate(12.5,0)"
         style="fill-rule:evenodd;stroke:url(#meshgradient960);stroke-width:1pt;stroke-opacity:1;fill:#34364a;fill-opacity:1"
         d="M 0.0,0.0 L 5.0,-5.0 L -12.5,0.0 L 5.0,5.0 L 0.0,0.0 z "
         id="path974" />
    </marker>
    <marker
       style="overflow:visible;"
       id="Arrow1Lend"
       refX="0.0"
       refY="0.0"
       orient="auto"
       inkscape:stockid="Arrow1Lend"
       inkscape:isstock="true">
      <path
         transform="scale(0.8) rotate(180) translate(12.5,0)"
         style="fill-rule:evenodd;stroke:#080808;stroke-width:1pt;stroke-opacity:0.34178;fill:#34364a;fill-opacity:1"
         d="M 0.0,0.0 L 5.0,-5.0 L -12.5,0.0 L 5.0,5.0 L 0.0,0.0 z "
         id="path977" />
    </marker>
    <linearGradient
       inkscape:collect="always"
       id="linearGradient951">
      <stop
         style="stop-color:#000000;stop-opacity:1;"
         offset="0"
         id="stop947" />
      <stop
         style="stop-color:#000000;stop-opacity:0;"
         offset="1"
         id="stop949" />
    </linearGradient>
    <inkscape:path-effect
       effect="clone_original"
       linkeditem="#text72"
       method="bsplinespiro"
       allow_transforms="false"
       id="path-effect121"
       lpeversion="1" />
    <inkscape:path-effect
       effect="clone_original"
       linkeditem="#text72"
       method="bsplinespiro"
       allow_transforms="false"
       id="path-effect84"
       lpeversion="1" />
    <rect
       x="199.31806"
       y="160.21753"
       width="199.60174"
       height="92.899382"
       id="rect76" />
    <radialGradient
       inkscape:collect="always"
       xlink:href="#linearGradient951"
       id="radialGradient953"
       cx="283.47688"
       cy="204.61711"
       fx="283.47688"
       fy="204.61711"
       r="79.787784"
       gradientTransform="matrix(1,0,0,0.19340855,0,165.04241)"
       gradientUnits="userSpaceOnUse" />
    <meshgradient
       inkscape:collect="always"
       id="meshgradient960"
       gradientUnits="userSpaceOnUse"
       x="203.6891"
       y="189.18547">
      <meshrow
         id="meshrow962">
        <meshpatch
           id="meshpatch964">
          <stop
             path="c 53.1919,0  106.384,0  159.576,0"
             style="stop-color:#ffffff;stop-opacity:1"
             id="stop966" />
          <stop
             path="c 0,10.2878  0,20.5755  0,30.8633"
             style="stop-color:#34364a;stop-opacity:1"
             id="stop968" />
          <stop
             path="c -53.1919,0  -106.384,0  -159.576,0"
             style="stop-color:#ffffff;stop-opacity:1"
             id="stop970" />
          <stop
             path="c 0,-10.2878  0,-20.5755  0,-30.8633"
             style="stop-color:#34364a;stop-opacity:1"
             id="stop972" />
        </meshpatch>
      </meshrow>
    </meshgradient>
  </defs>
  <sodipodi:namedview
     id="base"
     pagecolor="#ffffff"
     bordercolor="#666666"
     borderopacity="1.0"
     inkscape:pageopacity="0.0"
     inkscape:pageshadow="2"
     inkscape:zoom="3.4403697"
     inkscape:cx="148.29474"
     inkscape:cy="37.282037"
     inkscape:document-units="px"
     inkscape:current-layer="layer1"
     showgrid="false"
     inkscape:window-width="1920"
     inkscape:window-height="1020"
     inkscape:window-x="0"
     inkscape:window-y="0"
     inkscape:window-maximized="1"
     showborder="true"
     fit-margin-top="0"
     fit-margin-left="0"
     fit-margin-right="0"
     fit-margin-bottom="0"
     inkscape:document-rotation="0"
     units="px" />
  <metadata
     id="metadata7">
    <rdf:RDF>
      <cc:Work
         rdf:about="">
        <dc:format>image/svg+xml</dc:format>
        <dc:type
           rdf:resource="http://purl.org/dc/dcmitype/StillImage" />
        <dc:title>MIPT CS on Python</dc:title>
        <dc:date>8.09.2015</dc:date>
        <dc:creator>
          <cc:Agent>
            <dc:title>Timofey Khirianov</dc:title>
          </cc:Agent>
        </dc:creator>
        <dc:rights>
          <cc:Agent>
            <dc:title>Timofey Khirianov</dc:title>
          </cc:Agent>
        </dc:rights>
        <dc:publisher>
          <cc:Agent>
            <dc:title>MIPT, Moscow</dc:title>
          </cc:Agent>
        </dc:publisher>
        <dc:source />
        <cc:license
           rdf:resource="http://creativecommons.org/licenses/by-sa/4.0/" />
        <dc:identifier>http://judge.mipt.ru/mipt_cs_on_python3/</dc:identifier>
        <dc:language>ru-RU</dc:language>
        <dc:subject>
          <rdf:Bag>
            <rdf:li>МФТИ</rdf:li>
            <rdf:li>Python</rdf:li>
            <rdf:li>информатика</rdf:li>
            <rdf:li>Питон</rdf:li>
          </rdf:Bag>
        </dc:subject>
        <dc:description>Питон Каа из мультфильма про Маугли, выгнутый в форме символа МФТИ.</dc:description>
      </cc:Work>
      <cc:License
         rdf:about="http://creativecommons.org/licenses/by-sa/4.0/">
        <cc:permits
           rdf:resource="http://creativecommons.org/ns#Reproduction" />
        <cc:permits
           rdf:resource="http://creativecommons.org/ns#Distribution" />
        <cc:requires
           rdf:resource="http://creativecommons.org/ns#Notice" />
        <cc:requires
           rdf:resource="http://creativecommons.org/ns#Attribution" />
        <cc:permits
           rdf:resource="http://creativecommons.org/ns#DerivativeWorks" />
        <cc:requires
           rdf:resource="http://creativecommons.org/ns#ShareAlike" />
      </cc:License>
    </rdf:RDF>
  </metadata>
  <g
     inkscape:label="Layer 1"
     inkscape:groupmode="layer"
     id="layer1"
     transform="translate(-192.59664,-184.60676)">
    <path
       style="fill:#34364a;fill-opacity:1;stroke-width:0.458473"
       d="m 474.47543,186.98606 c -0.10824,0 -0.21876,0.01 -0.30087,0.043 -0.16424,0.0663 -0.0276,0.12895 0.30087,0.12895 0.32846,0 0.46511,-0.0627 0.30087,-0.12895 -0.0821,-0.0331 -0.19262,-0.043 -0.30087,-0.043 z m 4.57041,0 c -0.1732,9.2e-4 -0.34428,0.0131 -0.45848,0.043 -0.22839,0.0598 0.0189,0.10304 0.54444,0.10029 0.52555,-0.003 0.71264,-0.0431 0.41549,-0.10029 -0.14858,-0.0286 -0.32826,-0.0439 -0.50145,-0.043 z m -3.99732,0.42982 c -1.26557,0.0162 -1.66804,0.0945 -1.71927,0.28655 -0.062,0.23224 -0.0116,0.22745 0.17192,-0.0287 0.19344,-0.26997 0.2168,-0.15714 0.1003,0.4728 -0.23831,1.28849 -0.5114,1.91188 -0.84531,1.89121 -0.23958,-0.0149 -0.24925,-0.0485 -0.0143,-0.14328 0.16424,-0.0663 0.30087,-0.24012 0.30087,-0.38683 0,-0.18537 -0.0873,-0.17054 -0.28654,0.0286 -0.15767,0.15767 -0.88978,0.29379 -1.61899,0.3152 l -1.31811,0.043 1.31811,0.1576 1.30379,0.17193 -1.1032,0.0286 c -0.60768,0.0214 -1.4621,0.0937 -1.90553,0.1576 -0.68918,0.0993 -0.72542,0.0951 -0.21491,-0.086 0.49583,-0.17588 0.52561,-0.21842 0.12894,-0.22924 -0.26277,-0.007 -0.80933,0.13968 -1.20349,0.32953 -0.61922,0.29826 -0.63064,0.32592 -0.11462,0.21491 0.5209,-0.11206 0.53489,-0.0925 0.1576,0.14327 -0.2379,0.14867 -0.59207,0.20413 -0.788,0.12895 -0.22962,-0.0881 -0.2965,-0.0351 -0.18625,0.14327 0.11526,0.1865 0.047,0.22063 -0.22924,0.11462 -0.27625,-0.10601 -0.35883,-0.0576 -0.24356,0.12895 0.11355,0.18373 0.0439,0.22826 -0.21491,0.12894 -0.21443,-0.0823 -0.46857,-0.0313 -0.55877,0.11462 -0.10897,0.17631 -0.051,0.19166 0.17193,0.0573 0.28575,-0.17222 0.29356,-0.14365 0.0143,0.20058 -0.30756,0.37917 -0.67914,0.50536 -0.67338,0.30087 l -0.68771,0.83099 c -0.38825,0.46296 -0.8962,1.10736 -1.13185,1.43273 -0.41255,0.56967 -0.41079,0.55738 0,-0.20059 0.23462,-0.43291 0.74256,-1.0773 1.13185,-1.43273 l 0.68771,-0.6304 c 0.001,-0.0472 0.01,-0.10288 0.0573,-0.18625 0.0932,-0.16424 -0.22411,0.0703 -0.71636,0.53011 -0.86357,0.80675 -2.29083,2.9766 -2.27804,3.4672 0.003,0.13139 0.171,-0.0297 0.37251,-0.35818 0.246,-0.40103 0.31006,-0.43544 0.20058,-0.11462 -0.0897,0.26278 -0.21753,0.67591 -0.28655,0.91695 -0.069,0.24104 -0.1919,0.33053 -0.27222,0.20058 -0.0803,-0.12994 -0.14327,0.70515 -0.14327,1.86255 0,1.18967 0.0876,1.98981 0.20058,1.83389 0.12047,-0.16623 0.15702,-0.0663 0.086,0.25789 -0.0689,0.31414 -0.0212,0.4708 0.11462,0.38684 0.12793,-0.0791 0.19835,0.009 0.1576,0.18626 -0.0408,0.17742 -0.003,0.3152 0.086,0.3152 0.089,0 0.46104,0.28408 0.83098,0.6304 0.77908,0.72932 2.01655,1.39419 2.63622,1.4184 0.38144,0.0149 0.3666,0.046 -0.0573,0.22923 -0.29838,0.12901 0.0848,0.15629 1.00291,0.0716 0.80859,-0.0746 1.75068,-0.0606 2.10611,0.0287 0.62931,0.15794 0.64337,0.19647 0.48713,1.44705 -0.15126,1.21058 -0.11953,1.29032 0.40116,1.38975 0.49194,0.094 0.47045,0.1 -0.11462,0.12894 -0.55924,0.0277 -0.64982,-0.0568 -0.67338,-0.61607 -0.0181,-0.42983 -0.07,-0.51189 -0.14327,-0.22924 -0.0616,0.23761 -0.0584,0.58427 0.0143,0.77368 0.10637,0.27721 0.7901,0.34385 3.48153,0.34385 3.79051,0 3.97776,-0.089 3.69644,-1.84822 -0.21821,-1.36465 0.18341,-1.58797 2.59324,-1.43273 1.2701,0.0818 1.79879,0.0542 1.49004,-0.086 -0.36762,-0.16686 -0.2945,-0.19072 0.30087,-0.10029 0.84868,0.12889 1.55883,-0.0614 1.37542,-0.35818 -0.14901,-0.24111 0.56358,-0.51251 0.85964,-0.32953 0.12276,0.0759 0.19368,-2e-5 0.1576,-0.1576 -0.0361,-0.15758 0.0754,-0.33485 0.25789,-0.40117 0.22834,-0.0829 0.27469,-0.0262 0.14327,0.20059 -0.11277,0.1946 -0.0997,0.2608 0.0287,0.14327 0.11961,-0.10949 0.21491,-0.31614 0.21491,-0.45847 0,-0.14234 0.147,-0.31167 0.32953,-0.37251 0.22618,-0.0754 0.27179,-0.01 0.14327,0.21491 -0.10372,0.18128 0.20812,-0.0343 0.68771,-0.48713 0.85736,-0.80945 1.10106,-1.15052 0.6304,-0.85964 -0.37945,0.23451 -0.26927,-0.10498 0.25789,-0.84531 0.26769,-0.37594 0.63375,-1.09197 0.81666,-1.59033 0.1829,-0.49836 0.3397,-0.74151 0.35818,-0.54444 0.0906,0.96521 0.45776,-0.76803 0.4728,-2.24938 0.0123,-1.21749 -0.12065,-1.93648 -0.48713,-2.69353 -0.58138,-1.20098 -1.51661,-2.01496 -2.06313,-1.80524 -0.21023,0.0807 -0.31827,0.0349 -0.24356,-0.086 0.0747,-0.12087 -0.10376,-0.23644 -0.38684,-0.25789 -2.32017,-0.17576 -4.48931,-0.492 -4.68502,-0.68771 -0.13316,-0.13316 -0.16078,-0.65356 -0.0716,-1.18917 0.14383,-0.86422 0.17469,-0.88723 0.32953,-0.34385 0.15075,0.52906 0.16516,0.53621 0.18625,0.086 0.0412,-0.87859 -0.45747,-1.01992 -3.79673,-1.06022 -0.63171,-0.008 -1.15415,-0.005 -1.576,0 z m -1.8912,0.84531 c -0.0432,-0.0161 -0.0716,0.11183 -0.0716,0.35819 0,0.32845 0.0483,0.4651 0.11462,0.30087 0.0663,-0.16424 0.0663,-0.42318 0,-0.58742 -0.0166,-0.0411 -0.0286,-0.0663 -0.043,-0.0716 z m 35.40274,0.24357 -9.69958,0.0286 c -5.8142,0.0201 -8.28035,0.0633 -9.21245,0.18626 0.0103,0.0794 -0.0264,0.20766 -0.11462,0.37251 -0.136,0.25414 -0.2591,0.71297 -0.27222,1.01723 -0.0235,0.54577 -0.0228,0.53188 -0.20058,-0.0573 -0.1257,-0.4167 -0.17917,-0.15478 -0.17193,0.84531 0.006,0.78834 -0.0725,1.66722 -0.17192,1.96284 -0.18023,0.53567 -0.16587,0.54444 2.44996,0.54444 1.44338,0 2.78658,0.0635 2.99441,0.14327 0.24342,0.0934 0.37638,0.41895 0.35818,0.90262 l -0.0287,0.74502 -0.1576,-0.71636 -0.1576,-0.71637 -2.72219,-0.0716 c -1.54128,-0.0384 -2.87188,-0.18028 -3.05171,-0.32953 -0.24853,-0.20626 -0.2893,-0.17691 -0.17193,0.12894 0.12773,0.33287 0.57613,0.38684 2.96575,0.38684 h 2.82248 l 0.11461,0.90262 c 0.16215,1.16245 -1.74695,11.0907 -2.00582,10.43027 -0.0987,-0.25181 -0.19132,-0.31615 -0.20058,-0.14328 -0.009,0.17288 0.0932,0.51954 0.22924,0.77368 0.22486,0.42017 0.53745,0.45847 3.33826,0.45847 h 3.08036 l 0.27222,-1.37542 c 0.83642,-4.05669 1.13298,-5.15791 1.24648,-4.71368 0.0672,0.26278 0.0862,0.11185 0.043,-0.32952 -0.0432,-0.44137 0.14161,-1.82802 0.40116,-3.0947 0.59279,-2.89295 0.6707,-3.13768 1.00291,-3.13768 0.19256,0 0.17535,0.0825 -0.0287,0.28655 -0.15767,0.15766 -0.28057,0.44107 -0.27222,0.64473 0.009,0.22713 0.11103,0.17211 0.24356,-0.1576 0.20699,-0.51494 0.3294,-0.54444 3.03739,-0.54444 2.87118,0 3.4136,-0.15419 3.38124,-0.9456 -0.009,-0.22713 -0.0967,-0.15778 -0.22924,0.17193 -0.20866,0.51914 -0.30465,0.53674 -3.02306,0.48713 l -2.82247,-0.0573 2.79382,-0.0716 2.80815,-0.0716 0.1576,-0.88829 c 0.14199,-0.75692 0.19584,-0.82101 0.37251,-0.41549 0.14916,0.34239 0.17479,0.26352 0.086,-0.3152 -0.0676,-0.44045 -0.0466,-1.24595 0.043,-1.79091 0.14585,-0.88763 0.179,-0.93618 0.32953,-0.40117 0.14507,0.51558 0.16635,0.47825 0.1576,-0.24356 l -0.0143,-0.83098 z m -18.91203,0.21491 c -0.007,-0.0572 -0.0412,-0.10029 -0.10029,-0.10029 -0.0895,0 -0.18722,0.0742 -0.25789,0.17192 0.077,-0.0262 0.19926,-0.0507 0.35818,-0.0716 z m -0.35818,0.0716 c -0.0918,0.0311 -0.14047,0.0608 -0.14327,0.10029 -0.016,0.22488 0.002,0.23543 0.0716,0.0287 0.0161,-0.0479 0.0426,-0.0887 0.0716,-0.12895 z m -46.52071,-0.27222 c -4.05803,0.0151 -5.1817,0.0938 -5.12917,0.32953 0.037,0.16608 -0.0716,0.96077 -0.22924,1.76226 -0.2246,1.14162 -0.32793,1.3526 -0.48713,0.98858 -0.14047,-0.32122 -0.16024,-0.21354 -0.0716,0.35818 0.17593,1.13528 -0.6413,5.07559 -0.8883,4.28386 -0.10593,-0.33956 -0.1367,-0.0823 -0.0716,0.6304 0.081,0.88693 0.0587,1.07114 -0.11462,0.71637 -0.1751,-0.35838 -0.20299,-0.21894 -0.11462,0.58742 0.077,0.7023 0.0454,0.91128 -0.086,0.60174 -0.16977,-0.40011 -0.22735,-0.32961 -0.37251,0.44415 -0.0945,0.50394 -0.11715,0.98605 -0.043,1.06022 0.0742,0.0742 0.14723,-0.12663 0.1576,-0.44415 0.0104,-0.31739 0.0694,-0.45916 0.12894,-0.3152 0.0595,0.14397 -0.16947,1.53062 -0.50145,3.0947 -0.33199,1.56408 -0.60101,3.03669 -0.60175,3.26662 -9.1e-4,0.37271 0.28269,0.41549 2.60757,0.41549 1.43432,0 2.65311,-0.0734 2.70786,-0.17193 0.0547,-0.0985 0.079,-0.0741 0.0573,0.0573 -0.0229,0.1388 -1.20293,0.26177 -2.82248,0.30088 l -2.79384,0.0716 -0.0287,-0.788 c -0.0245,-0.59107 -0.0635,-0.64758 -0.14327,-0.22923 -0.0582,0.30517 -0.0433,0.71509 0.0287,0.90261 0.10276,0.26779 0.7106,0.34386 2.85113,0.34386 2.88434,0 3.50623,-0.22318 3.15201,-1.13186 -0.0903,-0.2316 0.0824,-1.64718 0.38683,-3.13767 0.41722,-2.04273 0.59668,-2.57121 0.7307,-2.1491 0.12071,0.38024 0.15671,0.2632 0.086,-0.35818 -0.1433,-1.25861 0.36101,-3.75517 0.6304,-3.12335 0.12384,0.29048 0.14589,0.0615 0.0716,-0.61607 -0.0903,-0.82426 -0.0556,-0.96809 0.12894,-0.60175 0.18862,0.3745 0.20389,0.28391 0.10029,-0.41549 -0.16821,-1.13558 0.26613,-2.80815 0.7307,-2.80815 0.22567,0 0.35472,0.23441 0.34385,0.65906 -0.0147,0.57597 -0.0432,0.60515 -0.21491,0.18625 -0.18067,-0.44088 -0.21918,-0.42906 -0.4728,0.21491 -0.15114,0.38382 -0.22768,0.86711 -0.17193,1.07455 0.0832,0.30961 0.10621,0.3002 0.12895,-0.043 0.0152,-0.22993 0.1265,-0.41549 0.25789,-0.41549 0.13874,0 0.26,0.92301 0.28655,2.2064 l 0.0429,2.2064 0.17193,-2.14909 c 0.0272,-0.36072 0.0534,-0.57788 0.0716,-0.64473 0.0401,0.0961 0.065,1.21821 0.043,3.39557 -0.0323,3.19772 0.005,4.22797 0.11462,2.98008 0.0529,-0.60258 0.0926,-0.94228 0.11461,-1.00291 0.0236,0.0954 0.0209,0.80666 0,2.24938 -0.0365,2.5238 0.0319,3.19206 0.30088,3.29528 0.50527,0.19389 5.15212,0.14457 5.4587,-0.0573 0.28218,-0.18582 1.28457,-2.05826 1.27512,-2.37833 -0.003,-0.10378 -0.30028,0.34597 -0.65905,1.00291 l -0.64473,1.20349 h -2.72218 c -2.2207,0 -2.75713,-0.0663 -2.83681,-0.35818 -0.0748,-0.27388 -0.0367,-0.29203 0.12895,-0.0573 0.15926,0.22568 0.89788,0.29369 2.80815,0.24356 l 2.60756,-0.0716 2.37833,-5.18648 c 1.307,-2.85252 2.45562,-5.13921 2.56459,-5.07186 0.10896,0.0673 0.1329,-0.0323 0.0573,-0.22924 -0.14827,-0.38637 1.27937,-3.2523 1.61898,-3.2523 0.3956,0 0.19663,1.44087 -0.98858,7.16365 -0.65694,3.17204 -1.20349,5.97895 -1.20349,6.23237 0,0.4282 0.19829,0.45847 2.73651,0.45847 3.02208,0 2.81227,0.11943 3.152,-1.79091 0.14248,-0.80117 0.19872,-0.87171 0.37251,-0.4728 0.15512,0.35604 0.17092,0.29245 0.086,-0.27222 -0.0622,-0.41327 -0.0414,-1.16985 0.043,-1.67629 0.14317,-0.85953 0.16815,-0.887 0.34386,-0.32953 0.12403,0.39348 0.15781,0.19954 0.086,-0.58742 -0.0818,-0.89648 -0.0631,-1.07496 0.11462,-0.71636 0.18977,0.38285 0.21807,0.31182 0.12895,-0.35818 -0.0612,-0.45986 0.0372,-1.48971 0.21491,-2.27804 0.19854,-0.8809 0.34009,-1.19803 0.37251,-0.83098 0.05,0.56643 0.0706,0.5651 0.24356,-0.11462 0.1003,-0.39417 0.18396,-0.94072 0.18626,-1.20349 0.004,-0.37439 -0.0364,-0.33904 -0.18626,0.12894 -0.15147,0.4729 -0.20058,0.49294 -0.20058,0.11462 0,-0.26278 0.0954,-0.74608 0.20058,-1.07455 0.16326,-0.50977 0.19137,-0.52244 0.22924,-0.11462 0.0332,0.358 0.10616,0.29344 0.27222,-0.24356 0.12191,-0.39416 0.16733,-1.15074 0.10029,-1.67629 -0.0942,-0.7383 -0.0687,-0.84195 0.11461,-0.4728 0.18011,0.36268 0.20406,0.21429 0.11462,-0.60175 -0.0814,-0.74259 -0.046,-0.93178 0.10029,-0.60175 0.14602,0.32948 0.19515,0.0267 0.1576,-1.00291 -0.0247,-0.67742 0.009,-1.16566 0.086,-1.38974 -0.60253,-0.10309 -2.00439,-0.13789 -4.88561,-0.14328 -4.00696,-0.007 -5.23933,0.0509 -5.18648,0.27222 0.0987,0.4133 -3.07488,7.65804 -3.29527,7.52183 -0.21175,-0.13093 -0.54481,0.60128 -0.35812,0.78798 0.0688,0.0688 0.12895,-0.0111 0.12895,-0.18626 0,-0.17518 0.0583,-0.25687 0.12894,-0.18625 0.21243,0.21243 -0.43217,1.37542 -0.75934,1.37542 -0.5429,0 -0.63254,-0.95383 -0.45848,-4.89994 0.0942,-2.13408 0.10621,-4.08271 0.0287,-4.32684 -0.13197,-0.41547 -0.46405,-0.44793 -5.32975,-0.42982 z m 19.98657,0.21491 c 0.12281,0.021 0.21166,0.0446 0.27222,0.0716 -0.10732,-0.25249 -0.20527,-0.2661 -0.27222,-0.0716 z m 0.27222,0.0716 c 0.0164,0.0385 0.0261,0.0645 0.0429,0.11462 0.0745,0.22228 0.10312,0.21748 0.086,-0.0143 -0.003,-0.04 -0.0594,-0.0692 -0.12895,-0.10029 z m 53.11126,-0.27222 c -0.60039,-0.006 -1.45223,0.004 -2.42131,0.0143 -1.61832,0.0178 -2.55196,0.0527 -3.05171,0.12894 0.0325,0.0663 0.005,0.19989 -0.086,0.37251 -0.12075,0.22993 -0.30191,0.89879 -0.40116,1.49004 -0.14922,0.8889 -0.21469,0.98248 -0.38684,0.58742 -0.15239,-0.34972 -0.16858,-0.25383 -0.086,0.35818 0.0621,0.45986 0.0126,1.21644 -0.10029,1.67629 -0.17499,0.71266 -0.21659,0.75261 -0.25789,0.24357 -0.038,-0.46807 -0.0853,-0.39248 -0.2579,0.34385 -0.12113,0.51674 -0.17287,1.04896 -0.11461,1.18917 0.0582,0.1402 0.10425,0.002 0.11461,-0.3152 0.0104,-0.31752 0.0826,-0.51911 0.1576,-0.44415 0.075,0.075 -0.15484,1.61525 -0.51578,3.42422 -0.47494,2.38032 -0.71397,3.15477 -0.85963,2.82248 -0.13757,-0.31381 -0.15851,-0.18912 -0.0716,0.37251 0.17489,1.13065 -0.3586,3.86206 -0.6304,3.22364 -0.12604,-0.29604 -0.16103,-0.0688 -0.086,0.61607 0.091,0.82978 0.0586,0.95621 -0.12894,0.58742 -0.21695,-0.42658 -0.22273,-0.40429 -0.11462,0.12895 0.0666,0.32847 0.11278,0.67188 0.11462,0.77367 0.002,0.10179 1.76196,0.15075 3.89702,0.11462 l 3.8827,-0.0573 1.84822,-2.75084 c 1.99034,-2.93968 2.68968,-3.90474 2.42131,-3.36691 -0.10655,0.21351 -0.0686,0.2763 0.10029,0.17192 0.14594,-0.0902 0.19786,-0.30754 0.12895,-0.48712 -0.0689,-0.17959 0.0113,-0.4165 0.17192,-0.51579 0.19909,-0.12304 0.23202,-0.0699 0.1003,0.14328 -0.12885,0.20847 -0.1005,0.24418 0.086,0.12894 0.15383,-0.0951 0.21719,-0.26724 0.14327,-0.38683 -0.18424,-0.29812 0.34059,-1.22162 0.60175,-1.06022 0.11572,0.0715 0.29176,-0.004 0.38683,-0.1576 0.10796,-0.17468 0.072,-0.20675 -0.10029,-0.10029 -0.50186,0.31017 -0.28609,-0.25177 0.3152,-0.81666 0.74167,-0.69676 0.95426,-0.29187 0.60175,1.08887 l -0.22924,0.94561 0.11462,-1.0459 c 0.0911,-0.77669 0.0421,-1.01173 -0.18625,-0.93127 -0.32561,0.11473 -0.32683,0.19103 -0.10029,1.99149 0.10758,0.85508 0.0872,1.05136 -0.086,0.70204 -0.18984,-0.38302 -0.21769,-0.31209 -0.12894,0.35818 0.0609,0.45986 -0.0864,1.74866 -0.32953,2.86546 -0.24319,1.1168 -0.45941,1.76458 -0.4728,1.44706 -0.0134,-0.31752 -0.0771,-0.5246 -0.14327,-0.45848 -0.0661,0.0661 -0.041,0.61944 0.0429,1.23215 l 0.14328,1.11753 h 3.08036 3.08037 l 0.1576,-0.75935 c 0.1338,-0.669 0.17994,-0.7088 0.35818,-0.30087 0.14739,0.33729 0.1713,0.24603 0.086,-0.3152 -0.0649,-0.42701 -0.0555,-1.11216 0.0286,-1.53302 0.13257,-0.66286 0.17521,-0.70506 0.34386,-0.30087 0.1207,0.28935 0.15359,0.01 0.086,-0.7307 -0.0852,-0.93306 -0.0486,-1.06828 0.12895,-0.60174 0.20149,0.52943 0.20255,0.51197 0.11462,-0.22924 -0.14316,-1.20671 1.36996,-8.62038 1.60465,-7.86568 0.10927,0.35136 0.13807,0.11162 0.0716,-0.61607 -0.0675,-0.73923 -0.0487,-1.01904 0.0716,-0.7307 0.13391,0.32088 0.22359,0.003 0.25789,-1.01723 0.0584,-1.73716 0.1062,-2.39408 0.21491,-2.59324 -0.48299,-0.0917 -1.49366,-0.11568 -3.68212,-0.12895 -2.24486,-0.0136 -4.20323,0.0492 -4.35549,0.14327 -0.15227,0.0941 -0.3892,0.41373 -0.53011,0.70204 -0.22072,0.4516 -0.19161,0.42854 0.22923,-0.086 0.58222,-0.71181 0.65928,-0.45875 0.11462,0.37251 -0.21146,0.32272 -0.46515,0.52518 -0.57309,0.45847 -0.10794,-0.0667 -0.27744,0.004 -0.37251,0.1576 -0.10796,0.17468 -0.072,0.22107 0.10029,0.11462 0.15169,-0.0938 0.27222,-0.11003 0.27222,-0.043 0,0.27401 -5.31915,8.26685 -5.50168,8.26685 -0.46948,0 -0.43153,-0.65479 0.28655,-4.32685 0.49992,-2.55644 0.83065,-3.72689 0.9456,-3.42422 0.0968,0.25505 0.13875,-0.14686 0.10029,-0.90262 -0.0381,-0.74962 0.027,-1.39403 0.14327,-1.43273 0.0581,-0.0193 -0.2879,-0.0373 -0.88829,-0.043 z m 13.71122,0.17193 c 0.10914,0.0207 0.197,0.0426 0.25789,0.0716 -0.0564,-0.0907 -0.12265,-0.1576 -0.17193,-0.1576 -0.0363,0 -0.0585,0.0356 -0.086,0.086 z m 0.25789,0.0716 c 0.0454,0.0729 0.0844,0.16972 0.11462,0.27221 0.11181,0.37933 0.11336,0.37735 0.0716,-0.0143 -0.012,-0.11283 -0.0549,-0.19531 -0.18625,-0.25789 z m -19.44213,-0.1003 c -0.0165,-0.0338 -0.0376,-0.0573 -0.086,-0.0573 -0.0737,0 -0.16338,0.0582 -0.22923,0.12894 0.0755,-0.0261 0.18426,-0.0517 0.3152,-0.0716 z m -0.32953,0.0716 c -0.11852,0.0429 -0.16745,0.0953 -0.17193,0.1576 -0.0164,0.22754 2.3e-4,0.22704 0.0716,0.0143 0.0218,-0.065 0.0564,-0.12276 0.10029,-0.17193 z m -62.55295,0.086 c 0.10441,0.10506 0.16879,1.03882 0.12894,2.07746 l -0.0716,1.8912 -0.12895,-2.07745 c -0.0646,-1.14371 -0.0328,-1.99626 0.0716,-1.89121 z m 32.2364,0.30088 c -0.0409,-0.001 -0.0573,0.0842 -0.0573,0.25789 0,0.21125 0.13664,0.43518 0.30088,0.50145 0.16423,0.0663 0.89634,0.11423 1.61898,0.1003 l 1.31811,-0.0287 -1.31811,-0.086 c -0.86359,-0.0558 -1.42271,-0.21362 -1.61898,-0.4728 -0.13505,-0.17834 -0.20268,-0.27081 -0.24357,-0.27222 z m -42.72398,0.0143 c -0.0489,0.018 -0.0794,0.14066 -0.0716,0.32953 0.0115,0.27829 0.067,0.33384 0.14327,0.14327 0.069,-0.17244 0.065,-0.37909 -0.0143,-0.45847 -0.0198,-0.0199 -0.041,-0.0203 -0.0573,-0.0143 z m 15.15827,0.0287 c -0.052,0.005 -0.17437,0.1548 -0.3152,0.40116 -0.18777,0.32847 -0.34385,0.6996 -0.34385,0.83098 0,0.13139 0.15608,-0.0297 0.34385,-0.35818 0.18777,-0.32847 0.34386,-0.69959 0.34386,-0.83098 0,-0.0328 -0.0113,-0.0447 -0.0287,-0.043 z m 64.63041,0.21491 c -0.0489,0.018 -0.0794,0.14066 -0.0716,0.32952 0.0115,0.2783 0.067,0.33385 0.14327,0.14328 0.069,-0.17245 0.0651,-0.3791 -0.0143,-0.45848 -0.0199,-0.0199 -0.041,-0.0203 -0.0573,-0.0143 z m -54.22879,0.22923 c -0.0489,0.018 -0.0794,0.14066 -0.0716,0.32953 0.0115,0.27829 0.067,0.34817 0.14327,0.1576 0.069,-0.17245 0.0651,-0.37909 -0.0143,-0.45847 -0.0198,-0.0199 -0.041,-0.0347 -0.0573,-0.0287 z m 47.07947,0.0716 c -0.0432,-0.0161 -0.0716,0.11183 -0.0716,0.35818 0,0.32846 0.0627,0.46511 0.12894,0.30087 0.0663,-0.16423 0.0663,-0.42318 0,-0.58741 -0.0165,-0.0411 -0.0429,-0.0663 -0.0573,-0.0716 z m 20.07254,0 c -0.0432,-0.0161 -0.0716,0.11183 -0.0716,0.35818 0,0.32846 0.0484,0.46511 0.11462,0.30087 0.0663,-0.16423 0.0663,-0.42318 0,-0.58741 -0.0165,-0.0411 -0.0286,-0.0663 -0.043,-0.0716 z m -46.43475,0.38684 c -0.083,0.003 -0.16089,0.0319 -0.20058,0.0716 -0.0794,0.0794 0.0634,0.13931 0.3152,0.12895 0.27829,-0.0115 0.33384,-0.067 0.14327,-0.14327 -0.0862,-0.0345 -0.1749,-0.0607 -0.25789,-0.0573 z m -46.49206,0.086 c -0.0432,-0.0161 -0.0716,0.12615 -0.0716,0.37251 0,0.32845 0.0484,0.46511 0.11461,0.30087 0.0663,-0.16423 0.0663,-0.43751 0,-0.60174 -0.0166,-0.0411 -0.0286,-0.0663 -0.043,-0.0716 z m 71.19231,0.24359 c -0.0432,-0.0161 -0.0716,0.11182 -0.0716,0.35818 0,0.32845 0.0484,0.46511 0.11462,0.30087 0.0663,-0.16423 0.0663,-0.42318 0,-0.58742 -0.0165,-0.0411 -0.0286,-0.0663 -0.043,-0.0716 z m 12.24983,0.35818 c -0.0995,0 -0.74782,0.94302 -2.19207,3.16633 -0.23471,0.36132 -0.37741,0.65906 -0.3152,0.65906 0.0995,0 0.74781,-0.94302 2.19207,-3.16634 0.23471,-0.36131 0.37741,-0.65905 0.3152,-0.65905 z m 9.22678,0.0573 c -0.0489,0.018 -0.0794,0.14066 -0.0716,0.32953 0.0115,0.27829 0.067,0.33383 0.14327,0.14327 0.069,-0.17245 0.0651,-0.37909 -0.0143,-0.45847 -0.0199,-0.0199 -0.041,-0.0203 -0.0573,-0.0143 z m -41.09067,0.22923 c -0.0489,0.018 -0.0794,0.15499 -0.0716,0.34386 0.0115,0.27829 0.067,0.33384 0.14327,0.14327 0.069,-0.17245 0.0651,-0.37909 -0.0143,-0.45847 -0.0199,-0.0199 -0.041,-0.0347 -0.0573,-0.0287 z m -3.00873,0.086 c 0.0207,-0.0213 0.11249,0.0316 0.28654,0.14327 0.32848,0.21066 0.85304,0.87892 1.16051,1.47571 0.30747,0.5968 0.52443,1.27729 0.4728,1.51869 -0.0574,0.26852 -0.17638,0.084 -0.28654,-0.4728 -0.10351,-0.52316 -0.55301,-1.33243 -1.06022,-1.90553 -0.42858,-0.48424 -0.60753,-0.72384 -0.57309,-0.75934 z m -34.18492,0.17193 c -0.042,0.0216 -0.0939,0.0734 -0.1576,0.17192 -0.12736,0.19709 -0.24356,0.47036 -0.24356,0.60175 0,0.13139 0.1162,0.0825 0.24356,-0.11462 0.12737,-0.19708 0.22924,-0.47036 0.22924,-0.60175 0,-0.0657 -0.0297,-0.0789 -0.0716,-0.0573 z m 65.16052,0.28654 c -0.0432,-0.0161 -0.0716,0.12616 -0.0716,0.37251 0,0.32846 0.0627,0.46511 0.12895,0.30087 0.0663,-0.16423 0.0663,-0.43751 0,-0.60174 -0.0165,-0.0411 -0.0429,-0.0663 -0.0573,-0.0716 z m -7.17797,0.41549 c -0.0489,0.018 -0.0794,0.14066 -0.0716,0.32953 0.0115,0.27829 0.067,0.33384 0.14327,0.14327 0.069,-0.17245 0.0507,-0.37909 -0.0286,-0.45847 -0.0199,-0.0198 -0.0267,-0.0203 -0.043,-0.0143 z m -21.00381,0.0716 c -0.0432,-0.0161 -0.0716,0.11183 -0.0716,0.35818 0,0.32846 0.0483,0.46511 0.11462,0.30087 0.0663,-0.16423 0.0663,-0.43751 0,-0.60174 -0.0165,-0.0411 -0.0286,-0.052 -0.043,-0.0573 z m -51.83614,0.4728 c -0.0432,-0.0161 -0.0716,0.12616 -0.0716,0.37251 0,0.32845 0.0484,0.45078 0.11461,0.28655 0.0663,-0.16424 0.0663,-0.42319 0,-0.58742 -0.0165,-0.0411 -0.0286,-0.0663 -0.043,-0.0716 z m 79.78868,0.24356 c -0.0432,-0.0161 -0.0716,0.11183 -0.0716,0.35819 0,0.32845 0.0483,0.4651 0.11461,0.30087 0.0663,-0.16423 0.0663,-0.43751 0,-0.60175 -0.0166,-0.0411 -0.0286,-0.0519 -0.043,-0.0573 z m -65.61899,0.20059 c -0.052,0.005 -0.17437,0.15481 -0.3152,0.40116 -0.18777,0.32847 -0.34385,0.69959 -0.34385,0.83098 0,0.13139 0.15608,-0.0297 0.34385,-0.35818 0.18777,-0.32847 0.34386,-0.69959 0.34386,-0.83098 0,-0.0328 -0.0113,-0.0448 -0.0287,-0.043 z m 11.14663,0.27221 c 0.0144,0.005 0.0264,0.0306 0.043,0.0716 0.0663,0.16424 0.0663,0.42319 0,0.58742 -0.0663,0.16423 -0.11462,0.0419 -0.11462,-0.28655 0,-0.24634 0.0284,-0.3886 0.0716,-0.37251 z m -6.24669,0.0573 c -0.1052,10e-4 -0.27136,0.17668 -0.50146,0.54444 -0.28773,0.45986 -0.52417,0.94316 -0.51578,1.07455 0.008,0.13138 0.12964,-0.005 0.27222,-0.30088 0.37041,-0.76804 0.59941,-0.65899 0.51578,0.24357 -0.0629,0.67858 -0.0379,0.65744 0.17193,-0.17193 0.22916,-0.90586 0.23263,-1.3922 0.0573,-1.38975 z m -19.31319,0.4155 c -0.0432,-0.0161 -0.0716,0.12615 -0.0716,0.3725 0,0.32846 0.0483,0.46511 0.11462,0.30088 0.0663,-0.16424 0.0663,-0.43751 0,-0.60175 -0.0165,-0.0411 -0.0286,-0.0663 -0.043,-0.0716 z m 35.44571,0.12894 c 0.29696,-0.002 0.53779,0.0705 0.64473,0.24356 0.0842,0.13622 0.0661,0.70723 -0.0287,1.26081 -0.12796,0.74779 -0.2101,0.89418 -0.32953,0.55876 -0.0884,-0.2483 -0.1639,0.23627 -0.17193,1.08887 -0.008,0.8526 -0.16199,1.86827 -0.34385,2.24939 -0.4047,0.84808 -1.28917,0.99482 -2.10611,0.35818 -0.48065,-0.37456 -0.58777,-0.68303 -0.6304,-1.84822 -0.0585,-1.59834 0.26833,-2.37351 1.34676,-3.28095 0.47164,-0.39686 1.12406,-0.62734 1.61898,-0.6304 z m 7.65078,0 c 0.89789,0 1.6933,0.91011 1.81956,2.06313 0.0953,0.87009 0.0931,0.88534 -0.11461,0.21491 -0.19694,-0.63549 -0.21229,-0.59572 -0.12895,0.34386 0.11012,1.24139 -0.26755,2.08176 -1.31811,2.96574 -0.78995,0.6647 -2.00544,0.83891 -2.2064,0.3152 -0.0657,-0.17128 0.052,-1.15726 0.25789,-2.19207 0.28241,-1.41914 0.42229,-1.76613 0.57309,-1.4184 0.13125,0.30264 0.15843,0.15613 0.0716,-0.42982 -0.1755,-1.1847 0.20011,-1.86255 1.04589,-1.86255 z m -8.12358,0.24356 c -0.82619,-9.1e-4 -2.34967,1.73125 -2.34967,2.66488 0,0.16575 0.23448,-0.1731 0.53011,-0.75935 0.34981,-0.69369 0.83127,-1.2182 1.37542,-1.49003 0.45985,-0.22973 0.65635,-0.41529 0.44414,-0.4155 z m 0.788,0 c -0.11318,0 -0.16308,0.27328 -0.10029,0.60175 0.0628,0.32847 0.16454,0.58742 0.21491,0.58742 0.0504,0 0.086,-0.25895 0.086,-0.58742 0,-0.32847 -0.0874,-0.60175 -0.20059,-0.60175 z m 7.62212,0.0143 c -0.24552,0.01 -0.17783,0.0888 0.17193,0.22924 0.29854,0.1199 0.6087,0.39584 0.68771,0.60174 0.079,0.20593 0.20167,0.31412 0.27222,0.24357 0.21008,-0.21009 -0.71931,-1.09096 -1.13186,-1.07455 z m 36.37699,0.0286 c -0.0489,0.018 -0.0651,0.14066 -0.0573,0.32953 0.0115,0.27829 0.067,0.33384 0.14327,0.14327 0.069,-0.17245 0.0507,-0.37909 -0.0287,-0.45847 -0.0199,-0.0198 -0.041,-0.0203 -0.0573,-0.0143 z m -67.83972,0.0716 -0.043,1.7336 c -0.0372,1.4007 0.0254,1.7336 0.3152,1.7336 0.19709,0 0.35819,-0.11217 0.35819,-0.24356 0,-0.13139 -0.10412,-0.22924 -0.22924,-0.22924 -0.12512,0 -0.26855,-0.68319 -0.3152,-1.50436 l -0.086,-1.49004 z m 80.74861,0.17193 c -0.0489,0.018 -0.0794,0.14066 -0.0716,0.32953 0.0115,0.27829 0.067,0.33383 0.14327,0.14327 0.069,-0.17245 0.065,-0.37909 -0.0143,-0.45848 -0.0199,-0.0198 -0.041,-0.0203 -0.0573,-0.0143 z m -50.40341,0.22923 c -0.0489,0.018 -0.0794,0.15499 -0.0716,0.34386 0.0115,0.27829 0.067,0.33384 0.14327,0.14327 0.069,-0.17245 0.065,-0.37909 -0.0143,-0.45847 -0.0199,-0.0198 -0.041,-0.0347 -0.0573,-0.0287 z m -28.56861,0.0287 c -0.052,0.005 -0.17437,0.16914 -0.3152,0.41549 -0.18777,0.32847 -0.34386,0.69959 -0.34386,0.83098 0,0.13139 0.15609,-0.0297 0.34386,-0.35818 0.18777,-0.32847 0.34385,-0.6996 0.34385,-0.83098 0,-0.0328 -0.0113,-0.0591 -0.0286,-0.0573 z m 67.82539,0.17193 c -0.0548,0 -0.52505,0.61993 -1.03156,1.37542 l -0.91695,1.37542 -0.1576,-0.71637 c -0.14502,-0.65098 -0.16058,-0.63569 -0.18626,0.28655 -0.0155,0.5584 0.0252,1.01724 0.086,1.01724 0.0608,0 0.524,-0.61994 1.03156,-1.37542 1.12609,-1.67611 1.30298,-1.96284 1.17484,-1.96284 z m -81.78017,0.043 c -0.0489,0.018 -0.0794,0.14065 -0.0716,0.32952 0.0115,0.27829 0.067,0.33384 0.14327,0.14328 0.069,-0.17245 0.0651,-0.3791 -0.0143,-0.45848 -0.0199,-0.0198 -0.041,-0.0203 -0.0573,-0.0143 z m 65.00291,0.30087 c -0.0432,-0.0161 -0.086,0.12616 -0.086,0.37251 0,0.32845 0.0627,0.46511 0.12895,0.30087 0.0663,-0.16423 0.0663,-0.43751 0,-0.60175 -0.0166,-0.0411 -0.0286,-0.0663 -0.043,-0.0716 z m 14.8001,0 c -0.0432,-0.0161 -0.0716,0.12616 -0.0716,0.37251 0,0.32845 0.0627,0.46511 0.12894,0.30087 0.0663,-0.16423 0.0663,-0.43751 0,-0.60175 -0.0166,-0.0411 -0.0429,-0.0663 -0.0573,-0.0716 z m -7.16365,0.24356 c -0.0432,-0.0161 -0.0716,0.12616 -0.0716,0.37251 0,0.32846 0.0484,0.45079 0.11462,0.28655 0.0663,-0.16424 0.0663,-0.42319 0,-0.58742 -0.0165,-0.0411 -0.0286,-0.0663 -0.043,-0.0716 z m 20.07253,0 c -0.0432,-0.0161 -0.0716,0.12616 -0.0716,0.37251 0,0.32846 0.0484,0.45079 0.11462,0.28655 0.0663,-0.16424 0.0663,-0.42319 0,-0.58742 -0.0166,-0.0411 -0.0286,-0.0663 -0.043,-0.0716 z m -34.90128,0.17193 c -0.0489,0.018 -0.0794,0.14065 -0.0716,0.32953 0.0115,0.27829 0.067,0.33384 0.14327,0.14327 0.069,-0.17245 0.0651,-0.37909 -0.0143,-0.45847 -0.0199,-0.0199 -0.041,-0.0203 -0.0573,-0.0143 z m -38.68368,0.30087 c -0.0432,-0.0161 -0.0716,0.12616 -0.0716,0.37251 0,0.32846 0.0484,0.46511 0.11462,0.30088 0.0663,-0.16424 0.0663,-0.43752 0,-0.60175 -0.0165,-0.0411 -0.0286,-0.0663 -0.043,-0.0716 z m 32.26506,0.10029 c 0.0131,0.008 0.028,0.0285 0.043,0.086 0.0601,0.22993 0.0601,0.61538 0,0.84531 -0.0601,0.22993 -0.11462,0.0444 -0.11462,-0.41549 0,-0.3449 0.0325,-0.53832 0.0716,-0.51579 z m -33.38259,0.35819 c -0.0697,0.0417 -0.241,0.28551 -0.42982,0.6304 -0.25176,0.45985 -0.45847,0.94315 -0.45847,1.07454 0,0.13139 0.20671,-0.14188 0.45847,-0.60174 0.25176,-0.45986 0.45848,-0.94316 0.45848,-1.07455 0,-0.0328 -0.005,-0.0425 -0.0287,-0.0286 z m 46.74995,0.0286 c -0.0432,-0.0161 -0.0716,0.11183 -0.0716,0.35818 0,0.32846 0.0483,0.46512 0.11462,0.30088 0.0663,-0.16424 0.0663,-0.43752 0,-0.60175 -0.0166,-0.0411 -0.0286,-0.0519 -0.043,-0.0573 z m -7.16365,0.22924 c -0.0432,-0.0161 -0.0716,0.12616 -0.0716,0.37251 0,0.32845 0.0483,0.46511 0.11462,0.30087 0.0663,-0.16423 0.0663,-0.43751 0,-0.60175 -0.0165,-0.0411 -0.0286,-0.0663 -0.043,-0.0716 z m 14.8001,0 c -0.0432,-0.0161 -0.0716,0.12616 -0.0716,0.37251 0,0.32845 0.0627,0.46511 0.12895,0.30087 0.0663,-0.16423 0.0663,-0.43751 0,-0.60175 -0.0166,-0.0411 -0.0429,-0.0663 -0.0573,-0.0716 z m 20.07253,0 c -0.0432,-0.0161 -0.0716,0.12616 -0.0716,0.37251 0,0.32845 0.0484,0.46511 0.11462,0.30087 0.0663,-0.16423 0.0663,-0.43751 0,-0.60175 -0.0165,-0.0411 -0.0286,-0.0663 -0.043,-0.0716 z m -56.87934,0.17192 c -0.0489,0.018 -0.0794,0.15499 -0.0716,0.34386 0.0115,0.27829 0.067,0.33384 0.14327,0.14327 0.069,-0.17244 0.0651,-0.37909 -0.0143,-0.45847 -0.0198,-0.0198 -0.041,-0.0347 -0.0573,-0.0287 z m 6.47593,0.0716 c -0.0432,-0.0161 -0.0716,0.12616 -0.0716,0.37251 0,0.32846 0.0483,0.45079 0.11461,0.28655 0.0663,-0.16424 0.0663,-0.42319 0,-0.58742 -0.0165,-0.0411 -0.0286,-0.0663 -0.043,-0.0716 z m -23.16723,0.24357 c -0.0432,-0.0161 -0.086,0.11183 -0.086,0.35818 0,0.32845 0.0627,0.46511 0.12894,0.30087 0.0663,-0.16423 0.0663,-0.43751 0,-0.60175 -0.0165,-0.0411 -0.0286,-0.0519 -0.043,-0.0573 z m -13.38169,0.4728 c -0.0432,-0.0161 -0.0716,0.12615 -0.0716,0.37251 0,0.32845 0.0483,0.4651 0.11462,0.30087 0.0663,-0.16424 0.0663,-0.43751 0,-0.60175 -0.0166,-0.0411 -0.0286,-0.0663 -0.043,-0.0716 z m 58.99979,0 c -0.0432,-0.0161 -0.0716,0.12615 -0.0716,0.37251 0,0.32845 0.0483,0.4651 0.11462,0.30087 0.0663,-0.16424 0.0663,-0.43751 0,-0.60175 -0.0165,-0.0411 -0.0286,-0.0663 -0.043,-0.0716 z m -38.45445,0.0429 c -0.0265,0.0619 -0.043,0.35069 -0.043,0.80233 0,0.72264 0.0456,1.02038 0.10029,0.65906 0.0547,-0.36132 0.0547,-0.95679 0,-1.31811 -0.0205,-0.13549 -0.0414,-0.18042 -0.0573,-0.14328 z m -0.95993,0.20059 c -0.0432,-0.0161 -0.0716,0.11183 -0.0716,0.35818 0,0.32846 0.0483,0.46511 0.11462,0.30087 0.0663,-0.16424 0.0663,-0.43751 0,-0.60174 -0.0166,-0.0411 -0.0286,-0.052 -0.043,-0.0573 z m 32.25073,0 c -0.0432,-0.0161 -0.0716,0.11183 -0.0716,0.35818 0,0.32846 0.0483,0.46511 0.11462,0.30087 0.0663,-0.16424 0.0663,-0.43751 0,-0.60174 -0.0165,-0.0411 -0.0286,-0.052 -0.043,-0.0573 z m 34.87263,0 c -0.0432,-0.0161 -0.0716,0.11183 -0.0716,0.35818 0,0.32846 0.0627,0.46511 0.12895,0.30087 0.0663,-0.16424 0.0663,-0.43751 0,-0.60174 -0.0166,-0.0411 -0.0429,-0.052 -0.0573,-0.0573 z m -20.08687,0.17192 c -0.0489,0.018 -0.0794,0.14066 -0.0716,0.32953 0.0115,0.27829 0.067,0.33384 0.14327,0.14328 0.069,-0.17245 0.065,-0.3791 -0.0143,-0.45848 -0.0199,-0.0198 -0.041,-0.0203 -0.0573,-0.0143 z m -36.76382,0.0573 c -0.0432,-0.0161 -0.0716,0.12616 -0.0716,0.37251 0,0.32846 0.0484,0.46511 0.11462,0.30088 0.0663,-0.16424 0.0663,-0.43752 0,-0.60175 -0.0165,-0.0411 -0.0286,-0.0663 -0.043,-0.0716 z m 6.44728,0 c -0.0432,-0.0161 -0.0716,0.12616 -0.0716,0.37251 0,0.32846 0.0483,0.46511 0.11462,0.30088 0.0663,-0.16424 0.0663,-0.43752 0,-0.60175 -0.0165,-0.0411 -0.0286,-0.0663 -0.043,-0.0716 z m 2.56458,0.15763 c -0.0783,0.0233 -0.28265,0.20784 -0.57309,0.51578 -0.83043,0.88046 -2.10611,1.25277 -2.10611,0.61607 0,-0.15331 -0.0644,-0.22212 -0.14327,-0.14327 -0.0789,0.0788 -0.0723,0.26103 0.0143,0.40116 0.4286,0.69349 2.18412,-0.0803 2.80815,-1.24647 0.0573,-0.10704 0.047,-0.15726 0,-0.14327 z m -25.73181,0.086 c -0.0432,-0.0161 -0.0716,0.12616 -0.0716,0.37251 0,0.32846 0.0484,0.46511 0.11462,0.30087 0.0663,-0.16424 0.0663,-0.43751 0,-0.60174 -0.0165,-0.0411 -0.0286,-0.0663 -0.043,-0.0716 z m -1.576,0.22924 c -0.0539,-0.008 -0.29608,0.34229 -0.57309,0.85963 -0.3166,0.59125 -0.5731,1.1724 -0.5731,1.30379 0,0.13139 0.2565,-0.23974 0.5731,-0.83098 0.31659,-0.59125 0.58741,-1.18673 0.58741,-1.31812 0,-0.0164 -0.007,-0.0132 -0.0143,-0.0143 z m 15.803,0 c -0.007,0.004 0,0.0152 0,0.0286 0,0.10779 0.22449,0.44928 0.51578,0.75935 0.52973,0.56387 1.66778,0.68579 1.74793,0.18625 0.0211,-0.13139 -0.003,-0.15585 -0.0573,-0.0573 -0.22771,0.40987 -1.25365,0.13348 -1.71927,-0.45847 -0.23828,-0.30291 -0.44076,-0.48862 -0.48713,-0.45847 z m -27.62302,0.18625 c -0.0489,0.018 -0.0794,0.14066 -0.0716,0.32953 0.0115,0.27829 0.067,0.33384 0.14327,0.14327 0.069,-0.17244 0.0507,-0.37909 -0.0287,-0.45847 -0.0199,-0.0198 -0.0267,-0.0203 -0.043,-0.0143 z m 58.99978,0 c -0.0489,0.018 -0.0794,0.14066 -0.0716,0.32953 0.0115,0.27829 0.067,0.33384 0.14327,0.14327 0.069,-0.17244 0.065,-0.37909 -0.0143,-0.45847 -0.0199,-0.0198 -0.041,-0.0203 -0.0573,-0.0143 z m -39.41437,0.22924 c -0.0489,0.018 -0.0794,0.15499 -0.0716,0.34385 0.0115,0.27829 0.067,0.33385 0.14327,0.14328 0.069,-0.17245 0.0651,-0.3791 -0.0143,-0.45848 -0.0198,-0.0198 -0.041,-0.0347 -0.0573,-0.0286 z m 26.11865,0.0143 c -0.11117,0.0502 -0.37136,0.43285 -0.67338,1.01724 -0.16401,0.31734 -0.0809,0.28206 0.24356,-0.11462 0.26867,-0.32847 0.48621,-0.69959 0.48713,-0.83098 4.4e-4,-0.0639 -0.0203,-0.0884 -0.0573,-0.0716 z m 20.96083,0.0573 c -0.0432,-0.0161 -0.0716,0.12615 -0.0716,0.3725 0,0.32846 0.0483,0.46511 0.11462,0.30088 0.0663,-0.16424 0.0663,-0.43751 0,-0.60175 -0.0165,-0.0411 -0.0286,-0.0663 -0.043,-0.0716 z m 20.07253,0 c -0.0432,-0.0161 -0.0716,0.12615 -0.0716,0.3725 0,0.32846 0.0484,0.46511 0.11462,0.30088 0.0663,-0.16424 0.0663,-0.43751 0,-0.60175 -0.0165,-0.0411 -0.0286,-0.0663 -0.043,-0.0716 z m -34.90128,0.17192 c -0.0489,0.018 -0.0794,0.14066 -0.0716,0.32953 0.0115,0.27829 0.067,0.34817 0.14328,0.1576 0.069,-0.17245 0.0651,-0.37909 -0.0143,-0.45847 -0.0199,-0.0198 -0.041,-0.0347 -0.0573,-0.0287 z m -38.69801,0.24357 c -0.0489,0.018 -0.0794,0.14066 -0.0716,0.32952 0.0115,0.27829 0.067,0.33385 0.14327,0.14328 0.069,-0.17245 0.0507,-0.3791 -0.0286,-0.45848 -0.0199,-0.0198 -0.0267,-0.0203 -0.043,-0.0143 z m 73.32707,0.71636 c -0.0489,0.018 -0.0651,0.14066 -0.0573,0.32953 0.0115,0.27829 0.067,0.33384 0.14327,0.14327 0.069,-0.17244 0.0507,-0.37909 -0.0286,-0.45847 -0.0199,-0.0199 -0.041,-0.0203 -0.0573,-0.0143 z m -34.84397,0.0573 c -0.0432,-0.0161 -0.0716,0.12616 -0.0716,0.37251 0,0.32846 0.0484,0.46511 0.11462,0.30087 0.0663,-0.16424 0.0663,-0.43751 0,-0.60174 -0.0165,-0.0411 -0.0286,-0.0663 -0.043,-0.0716 z m -38.69801,0.24356 c -0.0432,-0.0161 -0.086,0.12616 -0.086,0.37251 0,0.32846 0.0627,0.46511 0.12895,0.30088 0.0663,-0.16424 0.0663,-0.43752 0,-0.60175 -0.0165,-0.0411 -0.0286,-0.0663 -0.043,-0.0716 z m 64.61608,0.0573 c -0.12608,0.0789 -0.96434,1.26506 -2.14909,3.05172 -0.95838,1.44526 -1.86301,2.71162 -2.00583,2.80815 -0.14281,0.0965 -1.9488,0.18442 -4.01164,0.18625 -3.32234,0.003 -3.78162,-0.0452 -3.99731,-0.41549 -0.13392,-0.22993 -0.23944,-0.30988 -0.24356,-0.17193 -0.004,0.13796 0.11454,0.38677 0.27221,0.54444 0.40981,0.40978 7.60683,0.39684 8.12358,-0.0143 0.31941,-0.25414 3.28548,-4.59034 3.88269,-5.6736 0.13274,-0.24076 0.17097,-0.3415 0.12895,-0.3152 z m 1.76226,0.11462 c -0.0489,0.018 -0.0794,0.14066 -0.0716,0.32953 0.0115,0.27829 0.067,0.34817 0.14327,0.1576 0.069,-0.17245 0.0651,-0.37909 -0.0143,-0.45847 -0.0198,-0.0199 -0.041,-0.0347 -0.0573,-0.0287 z m -85.73451,0.0716 c -0.0432,-0.0161 -0.0716,0.11183 -0.0716,0.35818 0,0.32846 0.0483,0.46511 0.11462,0.30087 0.0663,-0.16424 0.0663,-0.42318 0,-0.58742 -0.0165,-0.0411 -0.0286,-0.0663 -0.043,-0.0716 z m 50.71861,0.12894 c 0.0657,0 -0.0631,0.21003 -0.30088,0.4728 -0.23781,0.26278 -0.49307,0.4728 -0.55876,0.4728 -0.0657,0 0.0774,-0.21002 0.3152,-0.4728 0.23781,-0.26277 0.47874,-0.4728 0.54444,-0.4728 z m -44.74413,0.34386 c -0.0432,-0.0161 -0.0716,0.12616 -0.0716,0.37251 0,0.32846 0.0484,0.46511 0.11462,0.30087 0.0663,-0.16423 0.0663,-0.43751 0,-0.60174 -0.0165,-0.0411 -0.0286,-0.0663 -0.043,-0.0716 z m 58.99978,0 c -0.0432,-0.0161 -0.0716,0.12616 -0.0716,0.37251 0,0.32846 0.0483,0.46511 0.11461,0.30087 0.0663,-0.16423 0.0663,-0.43751 0,-0.60174 -0.0165,-0.0411 -0.0286,-0.0663 -0.043,-0.0716 z m -7.16364,0.24356 c -0.0432,-0.0161 -0.0716,0.11183 -0.0716,0.35818 0,0.32846 0.0484,0.46511 0.11462,0.30088 0.0663,-0.16424 0.0663,-0.42319 0,-0.58742 -0.0165,-0.0411 -0.0286,-0.0663 -0.043,-0.0716 z m 14.81441,0 c -0.0432,-0.0161 -0.0716,0.11183 -0.0716,0.35818 0,0.32846 0.0483,0.46511 0.11462,0.30088 0.0663,-0.16424 0.0663,-0.42319 0,-0.58742 -0.0165,-0.0411 -0.0286,-0.0663 -0.043,-0.0716 z m -55.80479,0.21491 c -0.0539,-0.008 -0.29608,0.3423 -0.57309,0.85964 -0.3166,0.59125 -0.5731,1.18672 -0.5731,1.31811 0,0.13139 0.2565,-0.23974 0.5731,-0.83098 0.31659,-0.59125 0.58741,-1.18672 0.58741,-1.31811 0,-0.0164 -0.007,-0.0275 -0.0143,-0.0287 z m 68.69936,0.0143 c -0.0432,-0.0161 -0.0716,0.12615 -0.0716,0.37251 0,0.32846 0.0483,0.4651 0.11462,0.30087 0.0663,-0.16424 0.0663,-0.43751 0,-0.60175 -0.0165,-0.0411 -0.0286,-0.0663 -0.043,-0.0716 z m -66.43565,0.18627 c -0.0489,0.018 -0.0794,0.14066 -0.0716,0.32953 0.0115,0.27829 0.067,0.33384 0.14328,0.14327 0.069,-0.17244 0.065,-0.37908 -0.0143,-0.45847 -0.0199,-0.0199 -0.041,-0.0203 -0.0573,-0.0143 z m -19.32752,0.0573 c -0.0432,-0.0161 -0.0716,0.12616 -0.0716,0.37251 0,0.32846 0.0627,0.46511 0.12894,0.30088 0.0663,-0.16424 0.0663,-0.43752 0,-0.60175 -0.0165,-0.0411 -0.0429,-0.0663 -0.0573,-0.0716 z m 28.58295,0.18626 c -0.0152,0.006 -0.0287,0.0218 -0.0287,0.043 0,0.0847 0.51489,0.46836 1.13186,0.85963 0.61697,0.39127 1.23691,0.7182 1.37542,0.71637 0.13851,-10e-4 -0.24025,-0.27844 -0.83098,-0.61607 -0.59074,-0.33764 -1.21068,-0.73724 -1.37542,-0.87397 -0.12356,-0.10254 -0.22659,-0.14628 -0.27222,-0.12895 z m -22.62279,0.22923 c -0.0489,0.018 -0.0794,0.14066 -0.0716,0.32953 0.0115,0.2783 0.067,0.33384 0.14327,0.14328 0.069,-0.17245 0.0507,-0.37909 -0.0286,-0.45848 -0.0199,-0.0198 -0.0267,-0.0203 -0.043,-0.0143 z m 58.99978,0 c -0.0489,0.018 -0.0794,0.14066 -0.0716,0.32953 0.0115,0.2783 0.067,0.33384 0.14328,0.14328 0.069,-0.17245 0.065,-0.37909 -0.0143,-0.45848 -0.0198,-0.0198 -0.041,-0.0203 -0.0573,-0.0143 z m -39.41438,0.24357 c -0.0489,0.018 -0.0794,0.14066 -0.0716,0.32953 0.0115,0.27829 0.067,0.33384 0.14327,0.14327 0.069,-0.17245 0.065,-0.37909 -0.0143,-0.45847 -0.0199,-0.0199 -0.041,-0.0203 -0.0573,-0.0143 z m 32.26506,0.0573 c -0.0432,-0.0161 -0.0716,0.12615 -0.0716,0.37251 0,0.32845 0.0627,0.4651 0.12894,0.30087 0.0663,-0.16423 0.0663,-0.43751 0,-0.60175 -0.0165,-0.0411 -0.0429,-0.0663 -0.0573,-0.0716 z m 14.81442,0 c -0.0432,-0.0161 -0.0716,0.12615 -0.0716,0.37251 0,0.32845 0.0484,0.4651 0.11462,0.30087 0.0663,-0.16423 0.0663,-0.43751 0,-0.60175 -0.0165,-0.0411 -0.0286,-0.0663 -0.043,-0.0716 z m -53.51243,0.24356 c -0.0432,-0.0161 -0.0716,0.11183 -0.0716,0.35818 0,0.32846 0.0483,0.46511 0.11462,0.30088 0.0663,-0.16424 0.0663,-0.42319 0,-0.58742 -0.0165,-0.0411 -0.0286,-0.0663 -0.043,-0.0716 z m 66.40699,0 c -0.0432,-0.0161 -0.0716,0.11183 -0.0716,0.35818 0,0.32846 0.0627,0.46511 0.12894,0.30088 0.0663,-0.16424 0.0663,-0.42319 0,-0.58742 -0.0165,-0.0411 -0.0429,-0.0663 -0.0573,-0.0716 z m -85.74883,0.24357 c -0.0432,-0.0161 -0.086,0.11182 -0.086,0.35818 0,0.32845 0.0627,0.46511 0.12895,0.30087 0.0663,-0.16423 0.0663,-0.43751 0,-0.60175 -0.0165,-0.0411 -0.0286,-0.0519 -0.043,-0.0573 z m 5.96015,0.22923 c -0.0432,-0.0161 -0.0716,0.12616 -0.0716,0.37251 0,0.32846 0.0627,0.46511 0.12895,0.30087 0.0663,-0.16423 0.0663,-0.43751 0,-0.60174 -0.0165,-0.0411 -0.0429,-0.0663 -0.0573,-0.0716 z m 59.01411,0 c -0.0432,-0.0161 -0.0716,0.12616 -0.0716,0.37251 0,0.32846 0.0484,0.46511 0.11462,0.30087 0.0663,-0.16423 0.0663,-0.43751 0,-0.60174 -0.0165,-0.0411 -0.0286,-0.0663 -0.043,-0.0716 z m 27.68033,0.41549 c -0.0489,0.018 -0.0651,0.14066 -0.0573,0.32953 0.0115,0.27829 0.067,0.33384 0.14327,0.14327 0.069,-0.17244 0.0507,-0.37908 -0.0286,-0.45847 -0.0199,-0.0199 -0.041,-0.0203 -0.0573,-0.0143 z m -34.84397,0.0716 c -0.0432,-0.0161 -0.086,0.11183 -0.086,0.35818 0,0.32846 0.0627,0.46511 0.12895,0.30088 0.0663,-0.16424 0.0663,-0.43751 0,-0.60175 -0.0165,-0.0411 -0.0286,-0.052 -0.043,-0.0573 z m -23.36782,0.1576 c -0.13497,-0.004 -0.27861,0.009 -0.44414,0.0143 l -1.27513,0.043 1.2608,0.086 c 1.173,0.0821 1.24923,0.12794 1.27513,0.73069 0.0185,0.42963 0.0686,0.50291 0.14327,0.21491 0.1997,-0.77071 -0.015,-1.06156 -0.95993,-1.08888 z m 9.44169,0.0143 c -1.01585,2.6e-4 -1.48449,0.28093 -1.46138,0.87397 0.0102,0.26311 0.083,0.22046 0.22923,-0.14327 0.18577,-0.46216 0.40265,-0.54942 1.59033,-0.58742 l 1.38975,-0.043 -1.27513,-0.086 c -0.16732,-0.0116 -0.32768,-0.0144 -0.4728,-0.0143 z m -24.77189,0.0573 c -0.0432,-0.0161 -0.086,0.12616 -0.086,0.37251 0,0.32846 0.0627,0.46511 0.12895,0.30088 0.0663,-0.16424 0.0663,-0.43751 0,-0.60175 -0.0166,-0.0411 -0.0286,-0.0663 -0.043,-0.0716 z m -19.38482,0.17193 c -0.0489,0.018 -0.0794,0.15499 -0.0716,0.34386 0.0115,0.27829 0.0813,0.33384 0.1576,0.14327 0.069,-0.17245 0.0507,-0.37909 -0.0287,-0.45847 -0.0198,-0.0199 -0.041,-0.0347 -0.0573,-0.0287 z m 6.00313,0.31522 c -0.0432,-0.0161 -0.0716,0.11183 -0.0716,0.35819 0,0.32845 0.0484,0.4651 0.11462,0.30087 0.0663,-0.16423 0.0663,-0.43751 0,-0.60175 -0.0165,-0.0411 -0.0286,-0.0519 -0.043,-0.0573 z m 58.99979,0 c -0.0432,-0.0161 -0.0716,0.11183 -0.0716,0.35819 0,0.32845 0.0483,0.4651 0.11462,0.30087 0.0663,-0.16423 0.0663,-0.43751 0,-0.60175 -0.0165,-0.0411 -0.0286,-0.0519 -0.043,-0.0573 z m -39.41438,0.22924 c -0.0432,-0.0161 -0.0716,0.12615 -0.0716,0.37251 0,0.32846 0.0484,0.46511 0.11462,0.30087 0.0663,-0.16423 0.0663,-0.4375 0,-0.60174 -0.0165,-0.0411 -0.0286,-0.0663 -0.043,-0.0716 z m -6.47593,0.41549 c -0.0489,0.018 -0.0794,0.14066 -0.0716,0.32953 0.0115,0.27829 0.067,0.33384 0.14327,0.14327 0.069,-0.17244 0.065,-0.37909 -0.0143,-0.45847 -0.0199,-0.0198 -0.041,-0.0203 -0.0573,-0.0143 z m 66.4643,0.11462 c -0.0189,0.0214 -0.0415,0.1138 -0.0716,0.27222 -0.0582,0.30518 -0.0433,0.71509 0.0286,0.90262 0.10429,0.27175 0.77125,0.34385 3.30961,0.34385 3.11404,0 3.77342,-0.15105 3.75375,-0.83098 -0.004,-0.13795 -0.10964,-0.058 -0.24357,0.17193 -0.2128,0.36536 -0.65911,0.41549 -3.4672,0.41549 h -3.20931 l -0.0287,-0.77367 c -0.0155,-0.36945 -0.0401,-0.53716 -0.0716,-0.50146 z m -43.18246,0.40117 c 0.0114,0.009 0.0263,0.0333 0.0287,0.0716 0.009,0.15349 -0.0492,0.45123 -0.12895,0.65906 -0.0855,0.22275 -0.40147,0.37221 -0.77367,0.35818 l -0.6304,-0.0287 0.57309,-0.1576 c 0.31629,-0.0885 0.65787,-0.37067 0.75934,-0.6304 0.0761,-0.19479 0.1378,-0.30035 0.17193,-0.27221 z m 22.43654,0.0286 c -0.0401,-0.008 -0.10342,0.0948 -0.18626,0.30087 -0.20906,0.52017 -0.32172,0.54444 -3.43855,0.54444 -2.81542,0 -3.24003,-0.0501 -3.45287,-0.41549 -0.13392,-0.22993 -0.25377,-0.30988 -0.25789,-0.17193 -0.004,0.13796 0.12887,0.38677 0.28654,0.54444 0.19379,0.19378 1.29441,0.28654 3.4099,0.28654 3.18217,0 3.71508,-0.13976 3.68211,-0.9456 -0.004,-0.0852 -0.0189,-0.13875 -0.043,-0.14327 z m -39.44303,0.20058 c -0.0454,0.0303 -0.10497,0.11428 -0.17193,0.22924 -0.2104,0.36124 -0.62787,0.41549 -3.09469,0.41549 -2.01581,0 -2.85113,-0.0897 -2.85113,-0.28655 0,-0.15326 -0.0644,-0.20779 -0.14328,-0.12894 -0.0789,0.0788 -0.0723,0.26103 0.0143,0.40116 0.0971,0.15704 1.22261,0.25789 2.95142,0.25789 2.73164,0 3.40045,-0.16779 3.38124,-0.83098 -0.002,-0.069 -0.0405,-0.0876 -0.086,-0.0573 z"
       id="path4756"
       inkscape:connector-curvature="0"
       inkscape:export-filename="C:\Users\Хирьянов\Dropbox\МФТИ информатика\Python3\kaa_in_mipt.png"
       inkscape:export-xdpi="248.58934"
       inkscape:export-ydpi="248.58934" />
    <text
       xml:space="preserve"
       id="text74"
       style="fill:black;fill-opacity:1;line-height:1.25;stroke:none;font-family:sans-serif;font-style:normal;font-weight:normal;font-size:40px;white-space:pre;shape-inside:url(#rect76);" />
    <path
       d="m 228.95473,204.84172 q 0,3.30078 -0.80078,6.01563 -0.78125,2.71484 -2.34375,4.64843 -1.5625,1.9336 -3.88672,2.98828 -2.30469,1.05469 -5.33203,1.05469 -3.1836,0 -5.52735,-1.05469 -2.32422,-1.05468 -3.86719,-2.98828 -1.52343,-1.93359 -2.26562,-4.64843 -0.74219,-2.73438 -0.74219,-6.05469 0,-3.32031 0.74219,-6.01563 0.74219,-2.71484 2.28516,-4.6289 1.54296,-1.91407 3.88671,-2.94922 2.34375,-1.05469 5.52735,-1.05469 3.02734,0 5.3125,1.05469 2.30469,1.03515 3.86719,2.96875 1.5625,1.91406 2.34375,4.6289 0.80078,2.69532 0.80078,6.03516 z m -20.91797,0 q 0,2.67578 0.50781,4.82422 0.50781,2.12891 1.54297,3.63281 1.05469,1.48438 2.65625,2.28516 1.62109,0.78125 3.84766,0.78125 2.22656,0 3.82812,-0.78125 1.62109,-0.80078 2.65625,-2.28516 1.05469,-1.5039 1.54297,-3.63281 0.48828,-2.14844 0.48828,-4.82422 0,-2.69531 -0.48828,-4.82422 -0.48828,-2.1289 -1.52344,-3.59375 -1.03515,-1.48437 -2.63672,-2.26562 -1.60156,-0.80078 -3.82812,-0.80078 -2.22656,0 -3.84766,0.80078 -1.62109,0.78125 -2.67578,2.26562 -1.05469,1.46485 -1.5625,3.59375 -0.50781,2.12891 -0.50781,4.82422 z m 38.88672,-11.44531 q -2.08985,0 -3.78907,0.80078 -1.69921,0.78125 -2.91015,2.26562 -1.19141,1.48438 -1.85547,3.61329 -0.64453,2.1289 -0.64453,4.80468 0,2.75391 0.5664,4.90235 0.58594,2.1289 1.73829,3.59375 1.15234,1.46484 2.87109,2.22656 1.71875,0.76172 4.02344,0.76172 1.73828,0 3.30078,-0.33203 1.5625,-0.35157 3.08594,-0.80078 v 3.16406 q -0.76172,0.29297 -1.52344,0.52734 -0.76172,0.21485 -1.60156,0.35156 -0.82032,0.13672 -1.77735,0.19532 -0.9375,0.0781 -2.08984,0.0781 -3.20313,0 -5.54688,-1.05469 -2.34375,-1.05468 -3.88672,-2.98828 -1.52343,-1.93359 -2.26562,-4.64843 -0.74219,-2.71485 -0.74219,-6.01563 0,-3.24219 0.83985,-5.9375 0.85937,-2.69531 2.5,-4.62891 1.66015,-1.93359 4.10156,-3.00781 2.4414,-1.07422 5.60547,-1.07422 2.10937,0 4.02343,0.42969 1.91407,0.42969 3.45704,1.25 l -1.52344,3.04688 q -1.23047,-0.625 -2.67578,-1.07422 -1.44532,-0.44922 -3.28125,-0.44922 z m 22.91015,25.76172 v -28.55469 h 3.63282 v 25.3125 h 11.1914 v 3.24219 z m 22.71485,0 h -3.55469 v -21.44532 h 3.55469 z m -3.82813,-27.2461 q 0,-1.17187 0.58594,-1.69922 0.60547,-0.52734 1.48437,-0.52734 0.42969,0 0.80079,0.13672 0.39062,0.11719 0.66406,0.39062 0.29297,0.27344 0.44922,0.70313 0.17578,0.41016 0.17578,0.99609 0,1.13282 -0.625,1.69922 -0.60547,0.54688 -1.46485,0.54688 -0.8789,0 -1.48437,-0.54688 -0.58594,-0.54687 -0.58594,-1.69922 z m 24.02344,27.2461 v -13.8086 q 0,-2.53906 -1.03516,-3.80859 -1.01562,-1.26953 -3.20312,-1.26953 -1.58203,0 -2.65625,0.50781 -1.07422,0.50781 -1.73828,1.50391 -0.64453,0.99609 -0.9375,2.4414 -0.27344,1.44532 -0.27344,3.32032 v 11.11328 h -3.55469 v -21.44532 h 2.89063 l 0.50781,2.89063 h 0.19531 q 0.48828,-0.83984 1.15235,-1.44531 0.68359,-0.625 1.48437,-1.03516 0.80078,-0.41016 1.69922,-0.60547 0.89844,-0.19531 1.83594,-0.19531 3.57422,0 5.37109,1.875 1.81641,1.85547 1.81641,5.95703 v 14.00391 z m 24.04297,0 -0.52735,-2.8711 h -0.19531 q -0.48828,0.83985 -1.17187,1.46485 -0.66407,0.60547 -1.46485,1.01562 -0.80078,0.39063 -1.69922,0.58594 -0.89843,0.19531 -1.83593,0.19531 -1.77735,0 -3.125,-0.44922 -1.34766,-0.44922 -2.2461,-1.40625 -0.89843,-0.95703 -1.36718,-2.4414 -0.44922,-1.48438 -0.44922,-3.53516 v -14.00391 h 3.55468 v 13.8086 q 0,2.53906 1.03516,3.80859 1.03516,1.26953 3.20313,1.26953 1.58203,0 2.65625,-0.50781 1.07421,-0.50781 1.71875,-1.48437 0.66406,-0.9961 0.9375,-2.44141 0.29296,-1.44531 0.29296,-3.32031 v -11.13282 h 3.55469 v 21.44532 z m 14.23828,-10.9961 -6.89453,-10.44922 h 4.04297 l 4.88281,8.00782 4.88281,-8.00782 h 4.04297 l -6.93359,10.44922 7.28515,10.9961 h -4.04297 l -5.23437,-8.51563 -5.27344,8.51563 h -4.04297 z"
       id="path86"
       transform="translate(-5.5136776,-0.68092541)"
       style="fill:#34364a;fill-opacity:1;stroke:#080808;stroke-opacity:0.34177989;stroke-linecap:square;paint-order:markers fill stroke;marker-mid:url(#Arrow1Mend);stroke-width:0.4;stroke-miterlimit:1;stroke-dasharray:none;stroke-dashoffset:0;stroke-linejoin:round"
       inkscape:original-d="m 228.95473,204.84172 q 0,3.30078 -0.80078,6.01563 -0.78125,2.71484 -2.34375,4.64843 -1.5625,1.9336 -3.88672,2.98828 -2.30469,1.05469 -5.33203,1.05469 -3.1836,0 -5.52735,-1.05469 -2.32422,-1.05468 -3.86719,-2.98828 -1.52343,-1.93359 -2.26562,-4.64843 -0.74219,-2.73438 -0.74219,-6.05469 0,-3.32031 0.74219,-6.01563 0.74219,-2.71484 2.28516,-4.6289 1.54296,-1.91407 3.88671,-2.94922 2.34375,-1.05469 5.52735,-1.05469 3.02734,0 5.3125,1.05469 2.30469,1.03515 3.86719,2.96875 1.5625,1.91406 2.34375,4.6289 0.80078,2.69532 0.80078,6.03516 z m -20.91797,0 q 0,2.67578 0.50781,4.82422 0.50781,2.12891 1.54297,3.63281 1.05469,1.48438 2.65625,2.28516 1.62109,0.78125 3.84766,0.78125 2.22656,0 3.82812,-0.78125 1.62109,-0.80078 2.65625,-2.28516 1.05469,-1.5039 1.54297,-3.63281 0.48828,-2.14844 0.48828,-4.82422 0,-2.69531 -0.48828,-4.82422 -0.48828,-2.1289 -1.52344,-3.59375 -1.03515,-1.48437 -2.63672,-2.26562 -1.60156,-0.80078 -3.82812,-0.80078 -2.22656,0 -3.84766,0.80078 -1.62109,0.78125 -2.67578,2.26562 -1.05469,1.46485 -1.5625,3.59375 -0.50781,2.12891 -0.50781,4.82422 z m 38.88672,-11.44531 q -2.08985,0 -3.78907,0.80078 -1.69921,0.78125 -2.91015,2.26562 -1.19141,1.48438 -1.85547,3.61329 -0.64453,2.1289 -0.64453,4.80468 0,2.75391 0.5664,4.90235 0.58594,2.1289 1.73829,3.59375 1.15234,1.46484 2.87109,2.22656 1.71875,0.76172 4.02344,0.76172 1.73828,0 3.30078,-0.33203 1.5625,-0.35157 3.08594,-0.80078 v 3.16406 q -0.76172,0.29297 -1.52344,0.52734 -0.76172,0.21485 -1.60156,0.35156 -0.82032,0.13672 -1.77735,0.19532 -0.9375,0.0781 -2.08984,0.0781 -3.20313,0 -5.54688,-1.05469 -2.34375,-1.05468 -3.88672,-2.98828 -1.52343,-1.93359 -2.26562,-4.64843 -0.74219,-2.71485 -0.74219,-6.01563 0,-3.24219 0.83985,-5.9375 0.85937,-2.69531 2.5,-4.62891 1.66015,-1.93359 4.10156,-3.00781 2.4414,-1.07422 5.60547,-1.07422 2.10937,0 4.02343,0.42969 1.91407,0.42969 3.45704,1.25 l -1.52344,3.04688 q -1.23047,-0.625 -2.67578,-1.07422 -1.44532,-0.44922 -3.28125,-0.44922 z m 22.91015,25.76172 v -28.55469 h 3.63282 v 25.3125 h 11.1914 v 3.24219 z m 22.71485,0 h -3.55469 v -21.44532 h 3.55469 z m -3.82813,-27.2461 q 0,-1.17187 0.58594,-1.69922 0.60547,-0.52734 1.48437,-0.52734 0.42969,0 0.80079,0.13672 0.39062,0.11719 0.66406,0.39062 0.29297,0.27344 0.44922,0.70313 0.17578,0.41016 0.17578,0.99609 0,1.13282 -0.625,1.69922 -0.60547,0.54688 -1.46485,0.54688 -0.8789,0 -1.48437,-0.54688 -0.58594,-0.54687 -0.58594,-1.69922 z m 24.02344,27.2461 v -13.8086 q 0,-2.53906 -1.03516,-3.80859 -1.01562,-1.26953 -3.20312,-1.26953 -1.58203,0 -2.65625,0.50781 -1.07422,0.50781 -1.73828,1.50391 -0.64453,0.99609 -0.9375,2.4414 -0.27344,1.44532 -0.27344,3.32032 v 11.11328 h -3.55469 v -21.44532 h 2.89063 l 0.50781,2.89063 h 0.19531 q 0.48828,-0.83984 1.15235,-1.44531 0.68359,-0.625 1.48437,-1.03516 0.80078,-0.41016 1.69922,-0.60547 0.89844,-0.19531 1.83594,-0.19531 3.57422,0 5.37109,1.875 1.81641,1.85547 1.81641,5.95703 v 14.00391 z m 24.04297,0 -0.52735,-2.8711 h -0.19531 q -0.48828,0.83985 -1.17187,1.46485 -0.66407,0.60547 -1.46485,1.01562 -0.80078,0.39063 -1.69922,0.58594 -0.89843,0.19531 -1.83593,0.19531 -1.77735,0 -3.125,-0.44922 -1.34766,-0.44922 -2.2461,-1.40625 -0.89843,-0.95703 -1.36718,-2.4414 -0.44922,-1.48438 -0.44922,-3.53516 v -14.00391 h 3.55468 v 13.8086 q 0,2.53906 1.03516,3.80859 1.03516,1.26953 3.20313,1.26953 1.58203,0 2.65625,-0.50781 1.07421,-0.50781 1.71875,-1.48437 0.66406,-0.9961 0.9375,-2.44141 0.29296,-1.44531 0.29296,-3.32031 v -11.13282 h 3.55469 v 21.44532 z m 14.23828,-10.9961 -6.89453,-10.44922 h 4.04297 l 4.88281,8.00782 4.88281,-8.00782 h 4.04297 l -6.93359,10.44922 7.28515,10.9961 h -4.04297 l -5.23437,-8.51563 -5.27344,8.51563 h -4.04297 z"
       inkscape:path-effect="#path-effect121" />
  </g>
  <script
     id="mesh_polyfill"
     type="text/javascript">
!function(){const t=&quot;http://www.w3.org/2000/svg&quot;,e=&quot;http://www.w3.org/1999/xlink&quot;,s=&quot;http://www.w3.org/1999/xhtml&quot;,r=2;if(document.createElementNS(t,&quot;meshgradient&quot;).x)return;const n=(t,e,s,r)=&gt;{let n=new x(.5*(e.x+s.x),.5*(e.y+s.y)),o=new x(.5*(t.x+e.x),.5*(t.y+e.y)),i=new x(.5*(s.x+r.x),.5*(s.y+r.y)),a=new x(.5*(n.x+o.x),.5*(n.y+o.y)),h=new x(.5*(n.x+i.x),.5*(n.y+i.y)),l=new x(.5*(a.x+h.x),.5*(a.y+h.y));return[[t,o,a,l],[l,h,i,r]]},o=t=&gt;{let e=t[0].distSquared(t[1]),s=t[2].distSquared(t[3]),r=.25*t[0].distSquared(t[2]),n=.25*t[1].distSquared(t[3]),o=e&gt;s?e:s,i=r&gt;n?r:n;return 18*(o&gt;i?o:i)},i=(t,e)=&gt;Math.sqrt(t.distSquared(e)),a=(t,e)=&gt;t.scale(2/3).add(e.scale(1/3)),h=t=&gt;{let e,s,r,n,o,i,a,h=new g;return t.match(/(\w+\(\s*[^)]+\))+/g).forEach(t=&gt;{let l=t.match(/[\w.-]+/g),d=l.shift();switch(d){case&quot;translate&quot;:2===l.length?e=new g(1,0,0,1,l[0],l[1]):(console.error(&quot;mesh.js: translate does not have 2 arguments!&quot;),e=new g(1,0,0,1,0,0)),h=h.append(e);break;case&quot;scale&quot;:1===l.length?s=new g(l[0],0,0,l[0],0,0):2===l.length?s=new g(l[0],0,0,l[1],0,0):(console.error(&quot;mesh.js: scale does not have 1 or 2 arguments!&quot;),s=new g(1,0,0,1,0,0)),h=h.append(s);break;case&quot;rotate&quot;:if(3===l.length&amp;&amp;(e=new g(1,0,0,1,l[1],l[2]),h=h.append(e)),l[0]){r=l[0]*Math.PI/180;let t=Math.cos(r),e=Math.sin(r);Math.abs(t)&lt;1e-16&amp;&amp;(t=0),Math.abs(e)&lt;1e-16&amp;&amp;(e=0),a=new g(t,e,-e,t,0,0),h=h.append(a)}else console.error(&quot;math.js: No argument to rotate transform!&quot;);3===l.length&amp;&amp;(e=new g(1,0,0,1,-l[1],-l[2]),h=h.append(e));break;case&quot;skewX&quot;:l[0]?(r=l[0]*Math.PI/180,n=Math.tan(r),o=new g(1,0,n,1,0,0),h=h.append(o)):console.error(&quot;math.js: No argument to skewX transform!&quot;);break;case&quot;skewY&quot;:l[0]?(r=l[0]*Math.PI/180,n=Math.tan(r),i=new g(1,n,0,1,0,0),h=h.append(i)):console.error(&quot;math.js: No argument to skewY transform!&quot;);break;case&quot;matrix&quot;:6===l.length?h=h.append(new g(...l)):console.error(&quot;math.js: Incorrect number of arguments for matrix!&quot;);break;default:console.error(&quot;mesh.js: Unhandled transform type: &quot;+d)}}),h},l=t=&gt;{let e=[],s=t.split(/[ ,]+/);for(let t=0,r=s.length-1;t&lt;r;t+=2)e.push(new x(parseFloat(s[t]),parseFloat(s[t+1])));return e},d=(t,e)=&gt;{for(let s in e)t.setAttribute(s,e[s])},c=(t,e,s,r,n)=&gt;{let o,i,a=[0,0,0,0];for(let h=0;h&lt;3;++h)e[h]&lt;t[h]&amp;&amp;e[h]&lt;s[h]||t[h]&lt;e[h]&amp;&amp;s[h]&lt;e[h]?a[h]=0:(a[h]=.5*((e[h]-t[h])/r+(s[h]-e[h])/n),o=Math.abs(3*(e[h]-t[h])/r),i=Math.abs(3*(s[h]-e[h])/n),a[h]&gt;o?a[h]=o:a[h]&gt;i&amp;&amp;(a[h]=i));return a},u=[[1,0,0,0,0,0,0,0,0,0,0,0,0,0,0,0],[0,0,0,0,1,0,0,0,0,0,0,0,0,0,0,0],[-3,3,0,0,-2,-1,0,0,0,0,0,0,0,0,0,0],[2,-2,0,0,1,1,0,0,0,0,0,0,0,0,0,0],[0,0,0,0,0,0,0,0,1,0,0,0,0,0,0,0],[0,0,0,0,0,0,0,0,0,0,0,0,1,0,0,0],[0,0,0,0,0,0,0,0,-3,3,0,0,-2,-1,0,0],[0,0,0,0,0,0,0,0,2,-2,0,0,1,1,0,0],[-3,0,3,0,0,0,0,0,-2,0,-1,0,0,0,0,0],[0,0,0,0,-3,0,3,0,0,0,0,0,-2,0,-1,0],[9,-9,-9,9,6,3,-6,-3,6,-6,3,-3,4,2,2,1],[-6,6,6,-6,-3,-3,3,3,-4,4,-2,2,-2,-2,-1,-1],[2,0,-2,0,0,0,0,0,1,0,1,0,0,0,0,0],[0,0,0,0,2,0,-2,0,0,0,0,0,1,0,1,0],[-6,6,6,-6,-4,-2,4,2,-3,3,-3,3,-2,-1,-2,-1],[4,-4,-4,4,2,2,-2,-2,2,-2,2,-2,1,1,1,1]],f=t=&gt;{let e=[];for(let s=0;s&lt;16;++s){e[s]=0;for(let r=0;r&lt;16;++r)e[s]+=u[s][r]*t[r]}return e},p=(t,e,s)=&gt;{const r=e*e,n=s*s,o=e*e*e,i=s*s*s;return t[0]+t[1]*e+t[2]*r+t[3]*o+t[4]*s+t[5]*s*e+t[6]*s*r+t[7]*s*o+t[8]*n+t[9]*n*e+t[10]*n*r+t[11]*n*o+t[12]*i+t[13]*i*e+t[14]*i*r+t[15]*i*o},y=t=&gt;{let e=[],s=[],r=[];for(let s=0;s&lt;4;++s)e[s]=[],e[s][0]=n(t[0][s],t[1][s],t[2][s],t[3][s]),e[s][1]=[],e[s][1].push(...n(...e[s][0][0])),e[s][1].push(...n(...e[s][0][1])),e[s][2]=[],e[s][2].push(...n(...e[s][1][0])),e[s][2].push(...n(...e[s][1][1])),e[s][2].push(...n(...e[s][1][2])),e[s][2].push(...n(...e[s][1][3]));for(let t=0;t&lt;8;++t){s[t]=[];for(let r=0;r&lt;4;++r)s[t][r]=[],s[t][r][0]=n(e[0][2][t][r],e[1][2][t][r],e[2][2][t][r],e[3][2][t][r]),s[t][r][1]=[],s[t][r][1].push(...n(...s[t][r][0][0])),s[t][r][1].push(...n(...s[t][r][0][1])),s[t][r][2]=[],s[t][r][2].push(...n(...s[t][r][1][0])),s[t][r][2].push(...n(...s[t][r][1][1])),s[t][r][2].push(...n(...s[t][r][1][2])),s[t][r][2].push(...n(...s[t][r][1][3]))}for(let t=0;t&lt;8;++t){r[t]=[];for(let e=0;e&lt;8;++e)r[t][e]=[],r[t][e][0]=s[t][0][2][e],r[t][e][1]=s[t][1][2][e],r[t][e][2]=s[t][2][2][e],r[t][e][3]=s[t][3][2][e]}return r};class x{constructor(t,e){this.x=t||0,this.y=e||0}toString(){return`(x=${this.x}, y=${this.y})`}clone(){return new x(this.x,this.y)}add(t){return new x(this.x+t.x,this.y+t.y)}scale(t){return void 0===t.x?new x(this.x*t,this.y*t):new x(this.x*t.x,this.y*t.y)}distSquared(t){let e=this.x-t.x,s=this.y-t.y;return e*e+s*s}transform(t){let e=this.x*t.a+this.y*t.c+t.e,s=this.x*t.b+this.y*t.d+t.f;return new x(e,s)}}class g{constructor(t,e,s,r,n,o){void 0===t?(this.a=1,this.b=0,this.c=0,this.d=1,this.e=0,this.f=0):(this.a=t,this.b=e,this.c=s,this.d=r,this.e=n,this.f=o)}toString(){return`affine: ${this.a} ${this.c} ${this.e} \n       ${this.b} ${this.d} ${this.f}`}append(t){t instanceof g||console.error(&quot;mesh.js: argument to Affine.append is not affine!&quot;);let e=this.a*t.a+this.c*t.b,s=this.b*t.a+this.d*t.b,r=this.a*t.c+this.c*t.d,n=this.b*t.c+this.d*t.d,o=this.a*t.e+this.c*t.f+this.e,i=this.b*t.e+this.d*t.f+this.f;return new g(e,s,r,n,o,i)}}class w{constructor(t,e){this.nodes=t,this.colors=e}paintCurve(t,e){if(o(this.nodes)&gt;r){const s=n(...this.nodes);let r=[[],[]],o=[[],[]];for(let t=0;t&lt;4;++t)r[0][t]=this.colors[0][t],r[1][t]=(this.colors[0][t]+this.colors[1][t])/2,o[0][t]=r[1][t],o[1][t]=this.colors[1][t];let i=new w(s[0],r),a=new w(s[1],o);i.paintCurve(t,e),a.paintCurve(t,e)}else{let s=Math.round(this.nodes[0].x);if(s&gt;=0&amp;&amp;s&lt;e){let r=4*(~~this.nodes[0].y*e+s);t[r]=Math.round(this.colors[0][0]),t[r+1]=Math.round(this.colors[0][1]),t[r+2]=Math.round(this.colors[0][2]),t[r+3]=Math.round(this.colors[0][3])}}}}class m{constructor(t,e){this.nodes=t,this.colors=e}split(){let t=[[],[],[],[]],e=[[],[],[],[]],s=[[[],[]],[[],[]]],r=[[[],[]],[[],[]]];for(let s=0;s&lt;4;++s){const r=n(this.nodes[0][s],this.nodes[1][s],this.nodes[2][s],this.nodes[3][s]);t[0][s]=r[0][0],t[1][s]=r[0][1],t[2][s]=r[0][2],t[3][s]=r[0][3],e[0][s]=r[1][0],e[1][s]=r[1][1],e[2][s]=r[1][2],e[3][s]=r[1][3]}for(let t=0;t&lt;4;++t)s[0][0][t]=this.colors[0][0][t],s[0][1][t]=this.colors[0][1][t],s[1][0][t]=(this.colors[0][0][t]+this.colors[1][0][t])/2,s[1][1][t]=(this.colors[0][1][t]+this.colors[1][1][t])/2,r[0][0][t]=s[1][0][t],r[0][1][t]=s[1][1][t],r[1][0][t]=this.colors[1][0][t],r[1][1][t]=this.colors[1][1][t];return[new m(t,s),new m(e,r)]}paint(t,e){let s,n=!1;for(let t=0;t&lt;4;++t)if((s=o([this.nodes[0][t],this.nodes[1][t],this.nodes[2][t],this.nodes[3][t]]))&gt;r){n=!0;break}if(n){let s=this.split();s[0].paint(t,e),s[1].paint(t,e)}else{new w([...this.nodes[0]],[...this.colors[0]]).paintCurve(t,e)}}}class b{constructor(t){this.readMesh(t),this.type=t.getAttribute(&quot;type&quot;)||&quot;bilinear&quot;}readMesh(t){let e=[[]],s=[[]],r=Number(t.getAttribute(&quot;x&quot;)),n=Number(t.getAttribute(&quot;y&quot;));e[0][0]=new x(r,n);let o=t.children;for(let t=0,r=o.length;t&lt;r;++t){e[3*t+1]=[],e[3*t+2]=[],e[3*t+3]=[],s[t+1]=[];let r=o[t].children;for(let n=0,o=r.length;n&lt;o;++n){let o=r[n].children;for(let r=0,i=o.length;r&lt;i;++r){let i=r;0!==t&amp;&amp;++i;let h,d=o[r].getAttribute(&quot;path&quot;),c=&quot;l&quot;;null!=d&amp;&amp;(c=(h=d.match(/\s*([lLcC])\s*(.*)/))[1]);let u=l(h[2]);switch(c){case&quot;l&quot;:0===i?(e[3*t][3*n+3]=u[0].add(e[3*t][3*n]),e[3*t][3*n+1]=a(e[3*t][3*n],e[3*t][3*n+3]),e[3*t][3*n+2]=a(e[3*t][3*n+3],e[3*t][3*n])):1===i?(e[3*t+3][3*n+3]=u[0].add(e[3*t][3*n+3]),e[3*t+1][3*n+3]=a(e[3*t][3*n+3],e[3*t+3][3*n+3]),e[3*t+2][3*n+3]=a(e[3*t+3][3*n+3],e[3*t][3*n+3])):2===i?(0===n&amp;&amp;(e[3*t+3][3*n+0]=u[0].add(e[3*t+3][3*n+3])),e[3*t+3][3*n+1]=a(e[3*t+3][3*n],e[3*t+3][3*n+3]),e[3*t+3][3*n+2]=a(e[3*t+3][3*n+3],e[3*t+3][3*n])):(e[3*t+1][3*n]=a(e[3*t][3*n],e[3*t+3][3*n]),e[3*t+2][3*n]=a(e[3*t+3][3*n],e[3*t][3*n]));break;case&quot;L&quot;:0===i?(e[3*t][3*n+3]=u[0],e[3*t][3*n+1]=a(e[3*t][3*n],e[3*t][3*n+3]),e[3*t][3*n+2]=a(e[3*t][3*n+3],e[3*t][3*n])):1===i?(e[3*t+3][3*n+3]=u[0],e[3*t+1][3*n+3]=a(e[3*t][3*n+3],e[3*t+3][3*n+3]),e[3*t+2][3*n+3]=a(e[3*t+3][3*n+3],e[3*t][3*n+3])):2===i?(0===n&amp;&amp;(e[3*t+3][3*n+0]=u[0]),e[3*t+3][3*n+1]=a(e[3*t+3][3*n],e[3*t+3][3*n+3]),e[3*t+3][3*n+2]=a(e[3*t+3][3*n+3],e[3*t+3][3*n])):(e[3*t+1][3*n]=a(e[3*t][3*n],e[3*t+3][3*n]),e[3*t+2][3*n]=a(e[3*t+3][3*n],e[3*t][3*n]));break;case&quot;c&quot;:0===i?(e[3*t][3*n+1]=u[0].add(e[3*t][3*n]),e[3*t][3*n+2]=u[1].add(e[3*t][3*n]),e[3*t][3*n+3]=u[2].add(e[3*t][3*n])):1===i?(e[3*t+1][3*n+3]=u[0].add(e[3*t][3*n+3]),e[3*t+2][3*n+3]=u[1].add(e[3*t][3*n+3]),e[3*t+3][3*n+3]=u[2].add(e[3*t][3*n+3])):2===i?(e[3*t+3][3*n+2]=u[0].add(e[3*t+3][3*n+3]),e[3*t+3][3*n+1]=u[1].add(e[3*t+3][3*n+3]),0===n&amp;&amp;(e[3*t+3][3*n+0]=u[2].add(e[3*t+3][3*n+3]))):(e[3*t+2][3*n]=u[0].add(e[3*t+3][3*n]),e[3*t+1][3*n]=u[1].add(e[3*t+3][3*n]));break;case&quot;C&quot;:0===i?(e[3*t][3*n+1]=u[0],e[3*t][3*n+2]=u[1],e[3*t][3*n+3]=u[2]):1===i?(e[3*t+1][3*n+3]=u[0],e[3*t+2][3*n+3]=u[1],e[3*t+3][3*n+3]=u[2]):2===i?(e[3*t+3][3*n+2]=u[0],e[3*t+3][3*n+1]=u[1],0===n&amp;&amp;(e[3*t+3][3*n+0]=u[2])):(e[3*t+2][3*n]=u[0],e[3*t+1][3*n]=u[1]);break;default:console.error(&quot;mesh.js: &quot;+c+&quot; invalid path type.&quot;)}if(0===t&amp;&amp;0===n||r&gt;0){let e=window.getComputedStyle(o[r]).stopColor.match(/^rgb\s*\(\s*(\d+)\s*,\s*(\d+)\s*,\s*(\d+)\s*\)$/i),a=window.getComputedStyle(o[r]).stopOpacity,h=255;a&amp;&amp;(h=Math.floor(255*a)),e&amp;&amp;(0===i?(s[t][n]=[],s[t][n][0]=Math.floor(e[1]),s[t][n][1]=Math.floor(e[2]),s[t][n][2]=Math.floor(e[3]),s[t][n][3]=h):1===i?(s[t][n+1]=[],s[t][n+1][0]=Math.floor(e[1]),s[t][n+1][1]=Math.floor(e[2]),s[t][n+1][2]=Math.floor(e[3]),s[t][n+1][3]=h):2===i?(s[t+1][n+1]=[],s[t+1][n+1][0]=Math.floor(e[1]),s[t+1][n+1][1]=Math.floor(e[2]),s[t+1][n+1][2]=Math.floor(e[3]),s[t+1][n+1][3]=h):3===i&amp;&amp;(s[t+1][n]=[],s[t+1][n][0]=Math.floor(e[1]),s[t+1][n][1]=Math.floor(e[2]),s[t+1][n][2]=Math.floor(e[3]),s[t+1][n][3]=h))}}e[3*t+1][3*n+1]=new x,e[3*t+1][3*n+2]=new x,e[3*t+2][3*n+1]=new x,e[3*t+2][3*n+2]=new x,e[3*t+1][3*n+1].x=(-4*e[3*t][3*n].x+6*(e[3*t][3*n+1].x+e[3*t+1][3*n].x)+-2*(e[3*t][3*n+3].x+e[3*t+3][3*n].x)+3*(e[3*t+3][3*n+1].x+e[3*t+1][3*n+3].x)+-1*e[3*t+3][3*n+3].x)/9,e[3*t+1][3*n+2].x=(-4*e[3*t][3*n+3].x+6*(e[3*t][3*n+2].x+e[3*t+1][3*n+3].x)+-2*(e[3*t][3*n].x+e[3*t+3][3*n+3].x)+3*(e[3*t+3][3*n+2].x+e[3*t+1][3*n].x)+-1*e[3*t+3][3*n].x)/9,e[3*t+2][3*n+1].x=(-4*e[3*t+3][3*n].x+6*(e[3*t+3][3*n+1].x+e[3*t+2][3*n].x)+-2*(e[3*t+3][3*n+3].x+e[3*t][3*n].x)+3*(e[3*t][3*n+1].x+e[3*t+2][3*n+3].x)+-1*e[3*t][3*n+3].x)/9,e[3*t+2][3*n+2].x=(-4*e[3*t+3][3*n+3].x+6*(e[3*t+3][3*n+2].x+e[3*t+2][3*n+3].x)+-2*(e[3*t+3][3*n].x+e[3*t][3*n+3].x)+3*(e[3*t][3*n+2].x+e[3*t+2][3*n].x)+-1*e[3*t][3*n].x)/9,e[3*t+1][3*n+1].y=(-4*e[3*t][3*n].y+6*(e[3*t][3*n+1].y+e[3*t+1][3*n].y)+-2*(e[3*t][3*n+3].y+e[3*t+3][3*n].y)+3*(e[3*t+3][3*n+1].y+e[3*t+1][3*n+3].y)+-1*e[3*t+3][3*n+3].y)/9,e[3*t+1][3*n+2].y=(-4*e[3*t][3*n+3].y+6*(e[3*t][3*n+2].y+e[3*t+1][3*n+3].y)+-2*(e[3*t][3*n].y+e[3*t+3][3*n+3].y)+3*(e[3*t+3][3*n+2].y+e[3*t+1][3*n].y)+-1*e[3*t+3][3*n].y)/9,e[3*t+2][3*n+1].y=(-4*e[3*t+3][3*n].y+6*(e[3*t+3][3*n+1].y+e[3*t+2][3*n].y)+-2*(e[3*t+3][3*n+3].y+e[3*t][3*n].y)+3*(e[3*t][3*n+1].y+e[3*t+2][3*n+3].y)+-1*e[3*t][3*n+3].y)/9,e[3*t+2][3*n+2].y=(-4*e[3*t+3][3*n+3].y+6*(e[3*t+3][3*n+2].y+e[3*t+2][3*n+3].y)+-2*(e[3*t+3][3*n].y+e[3*t][3*n+3].y)+3*(e[3*t][3*n+2].y+e[3*t+2][3*n].y)+-1*e[3*t][3*n].y)/9}}this.nodes=e,this.colors=s}paintMesh(t,e){let s=(this.nodes.length-1)/3,r=(this.nodes[0].length-1)/3;if(&quot;bilinear&quot;===this.type||s&lt;2||r&lt;2){let n;for(let o=0;o&lt;s;++o)for(let s=0;s&lt;r;++s){let r=[];for(let t=3*o,e=3*o+4;t&lt;e;++t)r.push(this.nodes[t].slice(3*s,3*s+4));let i=[];i.push(this.colors[o].slice(s,s+2)),i.push(this.colors[o+1].slice(s,s+2)),(n=new m(r,i)).paint(t,e)}}else{let n,o,a,h,l,d,u;const x=s,g=r;s++,r++;let w=new Array(s);for(let t=0;t&lt;s;++t){w[t]=new Array(r);for(let e=0;e&lt;r;++e)w[t][e]=[],w[t][e][0]=this.nodes[3*t][3*e],w[t][e][1]=this.colors[t][e]}for(let t=0;t&lt;s;++t)for(let e=0;e&lt;r;++e)0!==t&amp;&amp;t!==x&amp;&amp;(n=i(w[t-1][e][0],w[t][e][0]),o=i(w[t+1][e][0],w[t][e][0]),w[t][e][2]=c(w[t-1][e][1],w[t][e][1],w[t+1][e][1],n,o)),0!==e&amp;&amp;e!==g&amp;&amp;(n=i(w[t][e-1][0],w[t][e][0]),o=i(w[t][e+1][0],w[t][e][0]),w[t][e][3]=c(w[t][e-1][1],w[t][e][1],w[t][e+1][1],n,o));for(let t=0;t&lt;r;++t){w[0][t][2]=[],w[x][t][2]=[];for(let e=0;e&lt;4;++e)n=i(w[1][t][0],w[0][t][0]),o=i(w[x][t][0],w[x-1][t][0]),w[0][t][2][e]=n&gt;0?2*(w[1][t][1][e]-w[0][t][1][e])/n-w[1][t][2][e]:0,w[x][t][2][e]=o&gt;0?2*(w[x][t][1][e]-w[x-1][t][1][e])/o-w[x-1][t][2][e]:0}for(let t=0;t&lt;s;++t){w[t][0][3]=[],w[t][g][3]=[];for(let e=0;e&lt;4;++e)n=i(w[t][1][0],w[t][0][0]),o=i(w[t][g][0],w[t][g-1][0]),w[t][0][3][e]=n&gt;0?2*(w[t][1][1][e]-w[t][0][1][e])/n-w[t][1][3][e]:0,w[t][g][3][e]=o&gt;0?2*(w[t][g][1][e]-w[t][g-1][1][e])/o-w[t][g-1][3][e]:0}for(let s=0;s&lt;x;++s)for(let r=0;r&lt;g;++r){let n=i(w[s][r][0],w[s+1][r][0]),o=i(w[s][r+1][0],w[s+1][r+1][0]),c=i(w[s][r][0],w[s][r+1][0]),x=i(w[s+1][r][0],w[s+1][r+1][0]),g=[[],[],[],[]];for(let t=0;t&lt;4;++t){(d=[])[0]=w[s][r][1][t],d[1]=w[s+1][r][1][t],d[2]=w[s][r+1][1][t],d[3]=w[s+1][r+1][1][t],d[4]=w[s][r][2][t]*n,d[5]=w[s+1][r][2][t]*n,d[6]=w[s][r+1][2][t]*o,d[7]=w[s+1][r+1][2][t]*o,d[8]=w[s][r][3][t]*c,d[9]=w[s+1][r][3][t]*x,d[10]=w[s][r+1][3][t]*c,d[11]=w[s+1][r+1][3][t]*x,d[12]=0,d[13]=0,d[14]=0,d[15]=0,u=f(d);for(let e=0;e&lt;9;++e){g[t][e]=[];for(let s=0;s&lt;9;++s)g[t][e][s]=p(u,e/8,s/8),g[t][e][s]&gt;255?g[t][e][s]=255:g[t][e][s]&lt;0&amp;&amp;(g[t][e][s]=0)}}h=[];for(let t=3*s,e=3*s+4;t&lt;e;++t)h.push(this.nodes[t].slice(3*r,3*r+4));l=y(h);for(let s=0;s&lt;8;++s)for(let r=0;r&lt;8;++r)(a=new m(l[s][r],[[[g[0][s][r],g[1][s][r],g[2][s][r],g[3][s][r]],[g[0][s][r+1],g[1][s][r+1],g[2][s][r+1],g[3][s][r+1]]],[[g[0][s+1][r],g[1][s+1][r],g[2][s+1][r],g[3][s+1][r]],[g[0][s+1][r+1],g[1][s+1][r+1],g[2][s+1][r+1],g[3][s+1][r+1]]]])).paint(t,e)}}}transform(t){if(t instanceof x)for(let e=0,s=this.nodes.length;e&lt;s;++e)for(let s=0,r=this.nodes[0].length;s&lt;r;++s)this.nodes[e][s]=this.nodes[e][s].add(t);else if(t instanceof g)for(let e=0,s=this.nodes.length;e&lt;s;++e)for(let s=0,r=this.nodes[0].length;s&lt;r;++s)this.nodes[e][s]=this.nodes[e][s].transform(t)}scale(t){for(let e=0,s=this.nodes.length;e&lt;s;++e)for(let s=0,r=this.nodes[0].length;s&lt;r;++s)this.nodes[e][s]=this.nodes[e][s].scale(t)}}document.querySelectorAll(&quot;rect,circle,ellipse,path,text&quot;).forEach((r,n)=&gt;{let o=r.getAttribute(&quot;id&quot;);o||(o=&quot;patchjs_shape&quot;+n,r.setAttribute(&quot;id&quot;,o));const i=r.style.fill.match(/^url\(\s*&quot;?\s*#([^\s&quot;]+)&quot;?\s*\)/),a=r.style.stroke.match(/^url\(\s*&quot;?\s*#([^\s&quot;]+)&quot;?\s*\)/);if(i&amp;&amp;i[1]){const a=document.getElementById(i[1]);if(a&amp;&amp;&quot;meshgradient&quot;===a.nodeName){const i=r.getBBox();let l=document.createElementNS(s,&quot;canvas&quot;);d(l,{width:i.width,height:i.height});const c=l.getContext(&quot;2d&quot;);let u=c.createImageData(i.width,i.height);const f=new b(a);&quot;objectBoundingBox&quot;===a.getAttribute(&quot;gradientUnits&quot;)&amp;&amp;f.scale(new x(i.width,i.height));const p=a.getAttribute(&quot;gradientTransform&quot;);null!=p&amp;&amp;f.transform(h(p)),&quot;userSpaceOnUse&quot;===a.getAttribute(&quot;gradientUnits&quot;)&amp;&amp;f.transform(new x(-i.x,-i.y)),f.paintMesh(u.data,l.width),c.putImageData(u,0,0);const y=document.createElementNS(t,&quot;image&quot;);d(y,{width:i.width,height:i.height,x:i.x,y:i.y});let g=l.toDataURL();y.setAttributeNS(e,&quot;xlink:href&quot;,g),r.parentNode.insertBefore(y,r),r.style.fill=&quot;none&quot;;const w=document.createElementNS(t,&quot;use&quot;);w.setAttributeNS(e,&quot;xlink:href&quot;,&quot;#&quot;+o);const m=&quot;patchjs_clip&quot;+n,M=document.createElementNS(t,&quot;clipPath&quot;);M.setAttribute(&quot;id&quot;,m),M.appendChild(w),r.parentElement.insertBefore(M,r),y.setAttribute(&quot;clip-path&quot;,&quot;url(#&quot;+m+&quot;)&quot;),u=null,l=null,g=null}}if(a&amp;&amp;a[1]){const o=document.getElementById(a[1]);if(o&amp;&amp;&quot;meshgradient&quot;===o.nodeName){const i=parseFloat(r.style.strokeWidth.slice(0,-2))*(parseFloat(r.style.strokeMiterlimit)||parseFloat(r.getAttribute(&quot;stroke-miterlimit&quot;))||1),a=r.getBBox(),l=Math.trunc(a.width+i),c=Math.trunc(a.height+i),u=Math.trunc(a.x-i/2),f=Math.trunc(a.y-i/2);let p=document.createElementNS(s,&quot;canvas&quot;);d(p,{width:l,height:c});const y=p.getContext(&quot;2d&quot;);let g=y.createImageData(l,c);const w=new b(o);&quot;objectBoundingBox&quot;===o.getAttribute(&quot;gradientUnits&quot;)&amp;&amp;w.scale(new x(l,c));const m=o.getAttribute(&quot;gradientTransform&quot;);null!=m&amp;&amp;w.transform(h(m)),&quot;userSpaceOnUse&quot;===o.getAttribute(&quot;gradientUnits&quot;)&amp;&amp;w.transform(new x(-u,-f)),w.paintMesh(g.data,p.width),y.putImageData(g,0,0);const M=document.createElementNS(t,&quot;image&quot;);d(M,{width:l,height:c,x:0,y:0});let S=p.toDataURL();M.setAttributeNS(e,&quot;xlink:href&quot;,S);const k=&quot;pattern_clip&quot;+n,A=document.createElementNS(t,&quot;pattern&quot;);d(A,{id:k,patternUnits:&quot;userSpaceOnUse&quot;,width:l,height:c,x:u,y:f}),A.appendChild(M),o.parentNode.appendChild(A),r.style.stroke=&quot;url(#&quot;+k+&quot;)&quot;,g=null,p=null,S=null}}})}();
</script>
</svg>
